<svg width="21" height="21" viewBox="0 0 21 21" fill="none" xmlns="http://www.w3.org/2000/svg">
<path d="M14.875 8.75L10.5 11.375L6.125 8.75M14.875 8.75V16.625H18.375V6.65M14.875 8.75L18.375 6.65M14.875 8.75V4.2875M6.125 8.75V16.625H2.625L2.62503 6.65001M6.125 8.75L2.62503 6.65001M6.125 8.75V4.2875M18.375 6.65V5.25C18.375 4.2835 17.5915 3.5 16.625 3.5C16.2141 3.5 15.8362 3.64164 15.5376 3.87875L14.875 4.2875M14.875 4.2875L10.5 7.00001L6.125 4.2875M6.125 4.2875L5.46242 3.87875C5.1638 3.64164 4.78595 3.5 4.37503 3.5C3.40853 3.5 2.62503 4.2835 2.62503 5.25V6.65001" stroke="#3C3C3C" stroke-width="1.75" stroke-linejoin="round"/>
</svg>
