<svg width="23" height="23" viewBox="0 0 23 23" fill="none" xmlns="http://www.w3.org/2000/svg">
<path d="M10.0625 1.4375C7.69063 1.4375 5.75 3.37813 5.75 5.75V8.625C4.52812 8.625 3.59375 9.55937 3.59375 10.7812V15.0938C3.59375 16.8188 4.24062 18.4719 5.4625 19.6937C6.68437 20.9156 8.3375 21.5625 10.0625 21.5625C13.1531 21.5625 15.7406 19.4062 16.3875 16.5312H16.5312C17.3219 16.5312 18.0406 16.2437 18.5437 15.6687C19.1187 15.0937 19.4062 14.375 19.4062 13.6562C19.4062 12.9375 19.1187 12.1469 18.5437 11.6438C17.9687 11.1406 17.3219 10.7812 16.5312 10.7812C16.5312 9.55937 15.5969 8.625 14.375 8.625V5.75C14.375 3.37813 12.4344 1.4375 10.0625 1.4375ZM17.5375 12.65C17.825 12.9375 17.9688 13.2969 17.9688 13.6562C17.9688 14.0156 17.825 14.375 17.5375 14.6625C17.1781 15.0219 16.6031 15.1656 16.0281 15.0219C15.4531 14.8062 15.0938 14.3031 15.0938 13.6562C15.0938 13.2969 15.2375 12.9375 15.525 12.65C15.6688 12.5063 15.8844 12.3625 16.1 12.2906C16.2437 12.2188 16.3875 12.2188 16.5312 12.2188C16.8906 12.2188 17.25 12.3625 17.5375 12.65ZM15.0938 10.7812V11.2125C14.8781 11.3563 14.6625 11.5 14.5188 11.6438C14.1594 12.0031 13.8719 12.4344 13.8 12.9375H7.1875C6.75625 12.9375 6.46875 13.225 6.46875 13.6562V15.0938C6.46875 15.525 6.75625 15.8125 7.1875 15.8125C7.61875 15.8125 7.90625 15.525 7.90625 15.0938V14.375H9.34375V15.0938C9.34375 15.525 9.63125 15.8125 10.0625 15.8125C10.4938 15.8125 10.7812 15.525 10.7812 15.0938V14.375H13.7281C13.9438 15.0938 14.375 15.6687 14.95 16.1C14.5187 18.4 12.5063 20.125 10.0625 20.125C8.69688 20.125 7.475 19.6219 6.46875 18.6875C5.53438 17.7531 5.03125 16.4594 5.03125 15.0938V10.7812C5.03125 10.35 5.31875 10.0625 5.75 10.0625H14.375C14.8063 10.0625 15.0938 10.35 15.0938 10.7812ZM7.1875 8.625V5.75C7.1875 4.16875 8.48125 2.875 10.0625 2.875C11.6438 2.875 12.9375 4.16875 12.9375 5.75V8.625H7.1875Z" fill="black"/>
</svg>
