<svg width="22" height="22" viewBox="0 0 22 22" fill="none" xmlns="http://www.w3.org/2000/svg">
<path d="M9.96848 14.8398L8.39205 13.2637L7.41992 14.2358L9.96848 16.7847L14.5795 12.1733L13.6074 11.2012L9.96848 14.8398Z" fill="black"/>
<path d="M16.5 8.56281V6.1875C16.5 3.14978 14.0377 0.6875 11 0.6875C7.96228 0.6875 5.5 3.14978 5.5 6.1875V8.56316C4.22228 9.91753 3.4375 11.7418 3.4375 13.75C3.4375 17.9255 6.82447 21.3125 11 21.3125C15.1769 21.3125 18.5625 17.9255 18.5625 13.75C18.5625 11.7415 17.7777 9.91719 16.5 8.56281ZM6.875 6.1875C6.875 3.91291 8.72541 2.0625 11 2.0625C13.2746 2.0625 15.125 3.91291 15.125 6.1875V7.41297C13.8987 6.61155 12.465 6.18563 11 6.1875C9.53499 6.18582 8.10134 6.61185 6.875 7.41331V6.1875ZM11 20.625C7.20328 20.625 4.125 17.5467 4.125 13.75C4.125 9.95328 7.20328 6.875 11 6.875C14.7967 6.875 17.875 9.95328 17.875 13.75C17.875 17.5467 14.7967 20.625 11 20.625Z" fill="black"/>
</svg>
