<svg width="83" height="83" viewBox="0 0 83 83" fill="none" xmlns="http://www.w3.org/2000/svg">
<path d="M42.668 55.0527C43.4461 56.4145 44.6133 57.5168 45.9102 58.2949C46.6883 58.7488 47.5312 59.1379 48.4391 59.3324C49.1523 59.527 49.9305 59.5918 50.7734 59.5918C51.5516 59.5918 52.3297 59.4621 53.1078 59.3324C54.0156 59.1379 54.8586 58.7488 55.6367 58.2949C56.9984 57.5168 58.1008 56.3496 58.8789 55.0527C59.3328 54.2746 59.7219 53.4316 59.9164 52.5238C60.1109 51.8105 60.1758 51.0324 60.1758 50.1895C60.1758 49.4113 60.0461 48.6332 59.9164 47.8551C59.7219 46.9473 59.3328 46.1043 58.8789 45.3262C58.1008 43.9645 56.9336 42.8621 55.6367 42.084C54.8586 41.6301 54.0156 41.241 53.1078 41.0465C52.3945 40.852 51.6164 40.7871 50.7734 40.7871C49.9953 40.7871 49.2172 40.9168 48.4391 41.0465C47.5312 41.241 46.6883 41.6301 45.9102 42.084C44.5484 42.8621 43.4461 44.0293 42.668 45.3262C42.2141 46.1043 41.825 46.9473 41.6305 47.8551C41.4359 48.5684 41.3711 49.3465 41.3711 50.1895C41.3711 50.9676 41.5008 51.7457 41.6305 52.5238C41.825 53.4316 42.2141 54.2746 42.668 55.0527Z" fill="#1F1F1F"/>
<path d="M77.5531 46.0387H75.6727C75.0242 42.2129 73.5328 38.6465 71.3281 35.5988L72.625 34.302C74.2461 32.6809 74.2461 30.0223 72.625 28.3363C71.0039 26.7152 68.2805 26.7152 66.6594 28.3363L65.3625 29.6332C62.3797 27.4285 58.8133 25.9371 54.9875 25.2887V23.4082C54.9875 21.0738 53.107 19.1934 50.7727 19.1934C49.5406 19.1934 48.4383 19.7121 47.6602 20.6199C48.1789 21.5277 48.4383 22.5652 48.4383 23.6676C48.4383 26.6504 46.2984 29.1793 43.5102 29.8277C43.1211 31.1895 42.6023 32.4863 41.8891 33.6535C42.2133 34.1074 42.4078 34.6262 42.6023 35.1449C43.8344 34.4965 45.1961 33.9129 46.5578 33.5887C47.9195 33.2645 49.3461 33.0699 50.7727 33.0699C52.1992 33.0699 53.6258 33.2645 54.9875 33.5887C56.6086 33.9777 58.1648 34.6262 59.5266 35.4691C61.9906 36.8957 64.0008 38.9707 65.4922 41.4348C66.3352 42.8613 66.9836 44.3527 67.3727 45.9738C67.6969 47.3355 67.8914 48.7621 67.8914 50.1887C67.8914 51.6152 67.6969 53.0418 67.3727 54.4035C66.9836 56.0246 66.3352 57.5809 65.4922 58.9426C64.0656 61.4066 61.9906 63.4168 59.5266 64.9082C58.1 65.7512 56.6086 66.3996 54.9875 66.7887C53.6258 67.1129 52.1992 67.3074 50.7727 67.3074C49.3461 67.3074 47.9195 67.1129 46.5578 66.7887C44.9367 66.3996 43.3805 65.7512 42.0188 64.9082C39.5547 63.4816 37.5445 61.4066 36.0531 58.9426C35.2102 57.516 34.5617 56.0246 34.1727 54.4035C33.8484 53.0418 33.6539 51.6152 33.6539 50.1887C33.6539 48.7621 33.8484 47.3355 34.1727 45.9738C34.432 45.0012 34.7563 44.0285 35.1453 43.1207C34.432 42.9262 33.7836 42.6668 33.2 42.2777C31.968 42.9262 30.6711 43.4449 29.3742 43.8988C28.7906 46.752 26.2617 48.827 23.2141 48.827C22.1766 48.827 21.2039 48.5676 20.2961 48.1137C19.9719 48.6973 19.7773 49.4105 19.7773 50.1238C19.7773 52.4582 21.6578 54.3387 23.9922 54.3387H25.8727C26.5211 58.1645 28.0125 61.7309 30.2172 64.7785L28.9203 66.0754C27.2992 67.6965 27.2992 70.3551 28.9203 72.041C29.7633 72.884 30.8008 73.273 31.9031 73.273C33.0055 73.273 34.043 72.884 34.8859 72.041L36.1828 70.7441C39.2305 72.884 42.7969 74.4402 46.6227 75.0887V76.9691C46.6227 79.3035 48.5031 81.184 50.8375 81.184C53.1719 81.184 55.0523 79.3035 55.0523 76.9691V75.0887C58.8781 74.4402 62.4445 72.9488 65.4922 70.7441L66.7891 72.041C67.632 72.884 68.6695 73.273 69.7719 73.273C70.8742 73.273 71.9117 72.884 72.7547 72.041C74.3758 70.4199 74.3758 67.6965 72.7547 66.0754L71.4578 64.7785C73.5977 61.7309 75.1539 58.1645 75.8023 54.3387H77.6828C80.0172 54.3387 81.8977 52.4582 81.8977 50.1238C81.768 47.9191 79.8875 46.0387 77.5531 46.0387Z" fill="#1F1F1F"/>
<path d="M20.1664 42.6025C20.1664 44.2236 21.5281 45.5854 23.1492 45.5854C24.7703 45.5854 26.132 44.2236 26.132 42.6025V41.3057C28.8555 40.8518 31.3844 39.8143 33.5242 38.258L34.432 39.1658C35.0156 39.7494 35.7937 40.0088 36.507 40.0088C37.2852 40.0088 37.9984 39.7494 38.582 39.1658C39.7492 37.9986 39.7492 36.1182 38.582 34.951L37.6742 34.0432C39.2305 31.9033 40.268 29.3744 40.7219 26.651H42.0188C43.6398 26.651 45.0016 25.2893 45.0016 23.6682C45.0016 22.0471 43.6398 20.6854 42.0188 20.6854H40.7219C40.268 17.9619 39.1656 15.433 37.6742 13.2932L38.582 12.3854C39.7492 11.2182 39.7492 9.3377 38.582 8.17051C37.4148 7.00332 35.5344 7.00332 34.3672 8.17051L33.5242 9.07832C31.3844 7.52207 28.8555 6.48457 26.132 6.03066V4.73379C26.132 3.1127 24.7703 1.75098 23.1492 1.75098C21.5281 1.75098 20.1664 3.1127 20.1664 4.73379V6.03066C17.5078 6.48457 14.9789 7.58691 12.8391 9.07832L11.9312 8.17051C10.7641 7.00332 8.88359 7.00332 7.71641 8.17051C6.54922 9.3377 6.54922 11.2182 7.71641 12.3854L8.62422 13.2932C7.06797 15.433 6.03047 17.9619 5.57656 20.6854H4.27969C2.65859 20.6854 1.29688 22.0471 1.29688 23.6682C1.29688 25.2893 2.65859 26.651 4.27969 26.651H5.57656C6.03047 29.3744 7.06797 31.9033 8.62422 34.0432L7.71641 34.951C6.54922 36.1182 6.54922 37.9986 7.71641 39.1658C8.3 39.7494 9.07813 40.0088 9.79141 40.0088C10.5695 40.0088 11.3477 39.7494 11.8664 39.1658L12.7742 38.258C14.9141 39.8143 17.443 40.8518 20.1664 41.3057V42.6025ZM18.2211 31.9682C16.8594 31.1252 15.6922 30.0229 14.8492 28.5963C14.3953 27.8182 14.0062 26.9752 13.8117 26.0025C13.6172 25.2244 13.4875 24.4463 13.4875 23.6682C13.4875 22.8252 13.6172 22.0471 13.8117 21.3338C14.0711 20.426 14.3953 19.583 14.8492 18.74C15.6922 17.3783 16.7945 16.2111 18.2211 15.3682C18.9992 14.9143 19.8422 14.5252 20.8148 14.3307C21.593 14.1361 22.3711 14.0064 23.1492 14.0064C23.9922 14.0064 24.7703 14.1361 25.4836 14.3307C26.3914 14.59 27.2344 14.9143 28.0773 15.3682C29.4391 16.2111 30.6063 17.3135 31.4492 18.74C31.9031 19.5182 32.2922 20.3611 32.4867 21.3338C32.6812 22.1119 32.8109 22.89 32.8109 23.6682C32.8109 24.5111 32.6812 25.2893 32.4867 26.0025C32.2273 26.9104 31.9031 27.7533 31.4492 28.5963C30.6063 29.958 29.5039 31.1252 28.0773 31.9682C27.2992 32.4221 26.4562 32.8111 25.4836 33.0057C24.7055 33.2002 23.9273 33.3299 23.1492 33.3299C22.3063 33.3299 21.5281 33.2002 20.8148 33.0057C19.907 32.8111 19.0641 32.4221 18.2211 31.9682Z" fill="#1F1F1F"/>
</svg>
