<svg width="28" height="28" viewBox="0 0 28 28" fill="none" xmlns="http://www.w3.org/2000/svg">
<path d="M12.25 11.375C13.1153 11.375 13.9612 11.1184 14.6806 10.6377C15.4001 10.1569 15.9608 9.47367 16.292 8.67424C16.6231 7.87481 16.7097 6.99515 16.5409 6.14648C16.3721 5.29781 15.9554 4.51826 15.3436 3.90641C14.7317 3.29456 13.9522 2.87788 13.1035 2.70907C12.2549 2.54026 11.3752 2.6269 10.5758 2.95803C9.77633 3.28916 9.09305 3.84992 8.61232 4.56938C8.13159 5.28885 7.875 6.13471 7.875 7C7.875 8.16032 8.33594 9.27312 9.15641 10.0936C9.97688 10.9141 11.0897 11.375 12.25 11.375ZM12.25 4.375C12.7692 4.375 13.2767 4.52896 13.7084 4.81739C14.1401 5.10583 14.4765 5.5158 14.6752 5.99546C14.8739 6.47511 14.9258 7.00291 14.8246 7.51211C14.7233 8.02131 14.4733 8.48904 14.1062 8.85616C13.739 9.22327 13.2713 9.47328 12.7621 9.57456C12.2529 9.67585 11.7251 9.62387 11.2455 9.42519C10.7658 9.22651 10.3558 8.89005 10.0674 8.45837C9.77895 8.02669 9.625 7.51918 9.625 7C9.625 6.30381 9.90156 5.63613 10.3938 5.14385C10.8861 4.65156 11.5538 4.375 12.25 4.375ZM24.71 14.875L21.21 14C21.0721 13.9659 20.9279 13.9659 20.79 14L19.2063 14.3938C18.2451 13.5675 17.0175 13.1168 15.75 13.125H8.75C7.35761 13.125 6.02226 13.6781 5.03769 14.6627C4.05312 15.6473 3.5 16.9826 3.5 18.375V21C3.5 21.2321 3.59219 21.4546 3.75628 21.6187C3.92038 21.7828 4.14294 21.875 4.375 21.875H16.7825C17.4825 23.8263 20.2825 25.1387 20.6413 25.2962C20.7541 25.347 20.8763 25.3732 21 25.3732C21.1237 25.3732 21.2459 25.347 21.3587 25.2962C21.77 25.1125 25.375 23.4325 25.375 21V15.75C25.3808 15.5501 25.318 15.3543 25.197 15.1951C25.076 15.0359 24.9041 14.9229 24.71 14.875ZM5.25 18.375C5.25 17.4467 5.61875 16.5565 6.27513 15.9001C6.9315 15.2438 7.82174 14.875 8.75 14.875H15.75C16.1539 14.8821 16.5536 14.9591 16.9313 15.1025C16.8374 15.1827 16.7616 15.2819 16.7088 15.3935C16.6561 15.5051 16.6275 15.6266 16.625 15.75V20.125H5.25V18.375ZM23.625 21C23.625 21.875 22.1725 22.925 21 23.5287C19.8275 22.925 18.375 21.875 18.375 21V16.4325L21 15.75L23.625 16.4063V21Z" fill="#3B3B3B"/>
</svg>
