<svg width="23" height="23" viewBox="0 0 23 23" fill="none" xmlns="http://www.w3.org/2000/svg">
<g clip-path="url(#clip0_901_4994)">
<path d="M18.0689 12.3013C21.4722 7.23052 18.0078 0.388018 12.0026 -0.00010652C10.895 -0.071763 9.78477 0.0905847 8.74408 0.476373C7.70338 0.86216 6.75557 1.46274 5.96232 2.23904C5.16907 3.01534 4.54816 3.94996 4.13999 4.98208C3.73182 6.01421 3.54553 7.1207 3.59325 8.22958V11.6472C3.59325 14.6581 4.78933 17.5457 6.91837 19.6748C9.0474 21.8038 11.935 22.9999 14.9459 22.9999C16.1717 23.015 17.3562 22.5575 18.2536 21.7224C19.1509 20.8872 19.6922 19.7386 19.7651 18.5149C19.7907 17.8696 19.6822 17.2261 19.4466 16.6248C19.2109 16.0236 18.8532 15.4778 18.3959 15.0218C18.0346 14.6765 17.8044 14.2164 17.7447 13.7202C17.6851 13.2239 17.7996 12.7224 18.0689 12.3013Z" fill="url(#paint0_linear_901_4994)"/>
<path d="M11.8596 11.2092C11.8566 11.3423 11.8906 11.4736 11.9579 11.5884C12.0252 11.7033 12.123 11.7972 12.2405 11.8597L15.7049 13.6925C15.8075 13.7469 15.9217 13.7756 16.0378 13.7762C16.1539 13.7768 16.2685 13.7492 16.3716 13.6959C16.4747 13.6426 16.5634 13.565 16.6301 13.4699C16.6967 13.3748 16.7393 13.265 16.7542 13.1499C16.8016 12.5642 16.989 11.9985 17.3005 11.5003C17.8857 10.5545 18.2309 9.48002 18.3062 8.37035C18.3816 7.26067 18.1847 6.1494 17.7327 5.13315C17.2807 4.1169 16.5873 3.22645 15.7128 2.53921C14.8383 1.85198 13.8092 1.38877 12.7149 1.18987C12.6097 1.16951 12.5014 1.17289 12.3977 1.19978C12.2941 1.22666 12.1978 1.27636 12.1158 1.34525C12.0338 1.41414 11.9683 1.50047 11.9239 1.59794C11.8796 1.69542 11.8576 1.80156 11.8596 1.90862V11.2092Z" fill="url(#paint1_linear_901_4994)"/>
<path d="M11.1408 4.08652V1.90152C11.1429 1.79409 11.1208 1.68756 11.0763 1.58978C11.0318 1.49199 10.9659 1.40544 10.8835 1.33648C10.8011 1.26753 10.7042 1.21792 10.6001 1.19132C10.496 1.16472 10.3873 1.1618 10.2819 1.18277C8.6916 1.49951 7.26142 2.36069 6.23753 3.61809C5.21363 4.8755 4.66005 6.45048 4.67207 8.07199V8.68293L10.8138 4.69027C10.9143 4.62491 10.9969 4.53542 11.0541 4.42997C11.1112 4.32452 11.141 4.20645 11.1408 4.08652Z" fill="url(#paint2_linear_901_4994)"/>
<path d="M11.1406 11.7052V6.67398C11.1408 6.5445 11.1061 6.41736 11.04 6.30602C10.9739 6.19467 10.8789 6.10324 10.7652 6.0414C10.6514 5.97955 10.5231 5.94958 10.3937 5.95465C10.2643 5.95973 10.1387 5.99966 10.0302 6.07023L4.99891 9.34054C4.90037 9.40456 4.81904 9.49176 4.76202 9.59451C4.70501 9.69726 4.67406 9.81243 4.67188 9.92991V11.5004C4.67092 12.9056 4.9643 14.2955 5.53312 15.5804C6.10195 16.8654 6.93361 18.017 7.97453 18.961C8.06474 19.0434 8.17447 19.1015 8.29336 19.1297C8.41225 19.1579 8.53637 19.1554 8.65399 19.1223C8.77161 19.0892 8.87886 19.0266 8.96559 18.9406C9.05233 18.8545 9.11569 18.7477 9.14969 18.6304C11.2988 11.2704 11.1406 11.8598 11.1406 11.7052Z" fill="url(#paint3_linear_901_4994)"/>
<path d="M17.2498 15.3063L12.506 12.7906C12.4118 12.7404 12.3077 12.7118 12.201 12.7068C12.0944 12.7019 11.988 12.7207 11.8896 12.762C11.7912 12.8033 11.7032 12.866 11.632 12.9456C11.5609 13.0251 11.5083 13.1195 11.4782 13.2219L9.6346 19.5433C9.58758 19.7034 9.59772 19.8749 9.66329 20.0283C9.72886 20.1817 9.84577 20.3076 9.99397 20.3842C11.1103 20.9837 12.3294 21.3677 13.5877 21.5163H14.3388C16.1105 21.5163 17.9685 19.8452 17.9685 17.6099C17.9647 16.7874 17.7144 15.985 17.2498 15.3063Z" fill="url(#paint4_linear_901_4994)"/>
<path d="M11.5 14.375C12.6909 14.375 13.6562 13.4096 13.6562 12.2188C13.6562 11.0279 12.6909 10.0625 11.5 10.0625C10.3091 10.0625 9.34375 11.0279 9.34375 12.2188C9.34375 13.4096 10.3091 14.375 11.5 14.375Z" fill="url(#paint5_linear_901_4994)"/>
<path d="M11.5 13.6562C12.2939 13.6562 12.9375 13.0127 12.9375 12.2188C12.9375 11.4248 12.2939 10.7812 11.5 10.7812C10.7061 10.7812 10.0625 11.4248 10.0625 12.2188C10.0625 13.0127 10.7061 13.6562 11.5 13.6562Z" fill="url(#paint6_linear_901_4994)"/>
</g>
<defs>
<linearGradient id="paint0_linear_901_4994" x1="3.59325" y1="11.4999" x2="19.7651" y2="11.4999" gradientUnits="userSpaceOnUse">
<stop stop-color="#F2C4B0"/>
<stop offset="1" stop-color="#FFE3D7"/>
</linearGradient>
<linearGradient id="paint1_linear_901_4994" x1="11.8596" y1="7.47175" x2="18.3283" y2="7.47175" gradientUnits="userSpaceOnUse">
<stop stop-color="#DA5466"/>
<stop offset="1" stop-color="#F4929C"/>
</linearGradient>
<linearGradient id="paint2_linear_901_4994" x1="4.67207" y1="4.93105" x2="11.1408" y2="4.93105" gradientUnits="userSpaceOnUse">
<stop stop-color="#DA5466"/>
<stop offset="1" stop-color="#F4929C"/>
</linearGradient>
<linearGradient id="paint3_linear_901_4994" x1="4.67188" y1="12.5426" x2="11.1442" y2="12.5426" gradientUnits="userSpaceOnUse">
<stop stop-color="#DA5466"/>
<stop offset="1" stop-color="#F4929C"/>
</linearGradient>
<linearGradient id="paint4_linear_901_4994" x1="9.60585" y1="17.1139" x2="17.9685" y2="17.1139" gradientUnits="userSpaceOnUse">
<stop stop-color="#DA5466"/>
<stop offset="1" stop-color="#F4929C"/>
</linearGradient>
<linearGradient id="paint5_linear_901_4994" x1="9.34375" y1="12.2188" x2="13.6562" y2="12.2188" gradientUnits="userSpaceOnUse">
<stop stop-color="#F2C4B0"/>
<stop offset="1" stop-color="#FFE3D7"/>
</linearGradient>
<linearGradient id="paint6_linear_901_4994" x1="10.0625" y1="12.2188" x2="12.9375" y2="12.2188" gradientUnits="userSpaceOnUse">
<stop stop-color="#DA5466"/>
<stop offset="1" stop-color="#F4929C"/>
</linearGradient>
<clipPath id="clip0_901_4994">
<rect width="23" height="23" fill="white"/>
</clipPath>
</defs>
</svg>
