<svg width="29" height="29" viewBox="0 0 29 29" fill="none" xmlns="http://www.w3.org/2000/svg">
<path d="M12.6606 4.29437L12.437 2.55052C11.9856 1.95606 10.9629 1.875 10.9629 1.875C11.1251 2.13783 11.2688 2.4116 11.393 2.69434C11.5774 3.12449 11.5603 4.11097 11.5603 4.11097L12.6606 4.29437Z" fill="url(#paint0_linear_901_4925)"/>
<path d="M10.1601 27.2726C10.114 27.2726 10.0689 27.2585 10.031 27.2322C9.99311 27.2059 9.96412 27.1686 9.94796 27.1254C9.93179 27.0822 9.9292 27.0351 9.94055 26.9903C9.95189 26.9456 9.97662 26.9054 10.0114 26.8751L11.0686 25.9548C11.114 25.9164 11.1728 25.8975 11.2321 25.902C11.2915 25.9066 11.3466 25.9343 11.3857 25.9792C11.4247 26.0241 11.4446 26.0826 11.4409 26.142C11.4372 26.2014 11.4103 26.2569 11.3659 26.2967L10.3088 27.217C10.2676 27.2529 10.2148 27.2727 10.1601 27.2726Z" fill="url(#paint1_linear_901_4925)"/>
<path d="M11.2675 27.6327C11.2309 27.6327 11.1949 27.6238 11.1625 27.6068C11.1301 27.5898 11.1023 27.5652 11.0814 27.5351C11.0606 27.505 11.0473 27.4704 11.0428 27.4341C11.0382 27.3978 11.0425 27.3609 11.0553 27.3266L11.5133 26.1032C11.5236 26.075 11.5393 26.0492 11.5595 26.0272C11.5798 26.0052 11.6042 25.9874 11.6314 25.9749C11.6586 25.9624 11.688 25.9554 11.7179 25.9543C11.7478 25.9532 11.7776 25.958 11.8057 25.9685C11.8337 25.979 11.8594 25.9949 11.8812 26.0154C11.903 26.0358 11.9206 26.0604 11.9329 26.0877C11.9451 26.115 11.9519 26.1445 11.9527 26.1744C11.9535 26.2043 11.9484 26.2341 11.9377 26.262L11.4797 27.4854C11.4635 27.5287 11.4346 27.566 11.3966 27.5923C11.3587 27.6186 11.3137 27.6327 11.2675 27.6327Z" fill="url(#paint2_linear_901_4925)"/>
<path d="M12.2578 27.7709C12.1977 27.7709 12.1401 27.747 12.0976 27.7045C12.0551 27.662 12.0312 27.6044 12.0312 27.5443V26.1602C12.0312 26.1001 12.0551 26.0424 12.0976 26C12.1401 25.9575 12.1977 25.9336 12.2578 25.9336C12.3179 25.9336 12.3755 25.9575 12.418 26C12.4605 26.0424 12.4844 26.1001 12.4844 26.1602V27.5443C12.4844 27.6044 12.4605 27.662 12.418 27.7045C12.3755 27.747 12.3179 27.7709 12.2578 27.7709Z" fill="url(#paint3_linear_901_4925)"/>
<path d="M14.3578 27.2722C14.3031 27.2722 14.2503 27.2525 14.2091 27.2165L13.0931 26.2451C13.0487 26.2054 13.0217 26.1498 13.018 26.0903C13.0143 26.0309 13.0341 25.9724 13.0732 25.9274C13.1123 25.8825 13.1676 25.8548 13.227 25.8503C13.2863 25.8457 13.3451 25.8648 13.3906 25.9033L14.5066 26.8747C14.5414 26.905 14.5661 26.9452 14.5775 26.9899C14.5888 27.0347 14.5862 27.0818 14.5701 27.125C14.5539 27.1682 14.5249 27.2055 14.487 27.2318C14.4491 27.2581 14.4039 27.2722 14.3578 27.2722Z" fill="url(#paint4_linear_901_4925)"/>
<path d="M13.2512 27.6332C13.2051 27.6332 13.16 27.6191 13.1221 27.5928C13.0842 27.5665 13.0552 27.5292 13.039 27.4859L12.5456 26.1683C12.5246 26.112 12.5267 26.0497 12.5516 25.995C12.5765 25.9403 12.6221 25.8978 12.6784 25.8767C12.7347 25.8556 12.797 25.8578 12.8517 25.8827C12.9064 25.9076 12.9489 25.9532 12.97 26.0094L13.4634 27.3272C13.4762 27.3615 13.4805 27.3984 13.476 27.4347C13.4714 27.471 13.4582 27.5057 13.4373 27.5357C13.4165 27.5658 13.3887 27.5904 13.3563 27.6074C13.3238 27.6244 13.2878 27.6332 13.2512 27.6332Z" fill="url(#paint5_linear_901_4925)"/>
<path d="M22.6118 19.9867C22.7843 18.5399 22.7091 17.0743 22.3894 15.6528C21.5497 11.801 17.0726 9.89332 14.7937 7.6421C14.2363 7.08472 13.7215 6.48621 13.2538 5.85162C13.0596 5.58985 12.9551 5.27239 12.9558 4.94646V4.33789L11.5608 4.11133V4.94644C11.5615 5.27238 11.457 5.58985 11.2628 5.85162C10.7951 6.48619 10.2804 7.0847 9.72294 7.6421C7.44399 9.89332 2.96692 11.801 2.12732 15.6528C1.09209 20.4017 2.65974 24.8696 6.09765 25.7924C8.04223 26.3143 10.6824 26.4549 12.2584 26.4902C14.1918 26.4469 17.7269 26.2451 19.6144 25.3751L22.6118 19.9867Z" fill="url(#paint6_linear_901_4925)"/>
<path d="M1.82227 18.9727C1.95141 22.3388 3.48267 25.091 6.09693 25.7927C8.04152 26.3147 10.6817 26.4552 12.2577 26.4905C14.1912 26.4473 17.7263 26.2455 19.6137 25.3755L22.6112 19.987C22.6535 19.6564 22.6811 19.3177 22.6943 18.9727H1.82227Z" fill="url(#paint7_linear_901_4925)"/>
<path d="M8.90363 25.5597C8.86753 25.5597 8.83194 25.5511 8.79987 25.5345C8.72043 25.4934 6.842 24.5065 5.91097 22.5201C4.93149 20.4311 5.14322 15.1969 7.23097 13.1707C8.79675 11.6464 10.0915 9.8666 11.0597 7.90762C11.0719 7.88045 11.0892 7.85594 11.1108 7.83549C11.1324 7.81503 11.1579 7.79903 11.1857 7.7884C11.2134 7.77776 11.2431 7.77271 11.2728 7.77352C11.3025 7.77433 11.3318 7.781 11.359 7.79313C11.3862 7.80526 11.4107 7.82262 11.4311 7.84423C11.4516 7.86583 11.4676 7.89125 11.4782 7.91904C11.4888 7.94683 11.4939 7.97644 11.4931 8.00618C11.4923 8.03592 11.4856 8.06521 11.4735 8.09238C10.488 10.1078 9.15915 11.9363 7.54648 13.4959C5.52842 15.4547 5.48904 20.5529 6.32118 22.3279C7.18516 24.1709 8.98993 25.1225 9.00785 25.1319C9.05296 25.1552 9.08891 25.193 9.10996 25.2393C9.131 25.2855 9.1359 25.3374 9.12388 25.3868C9.11186 25.4361 9.08361 25.48 9.04367 25.5113C9.00373 25.5427 8.95441 25.5597 8.90363 25.5597Z" fill="url(#paint8_linear_901_4925)"/>
<path d="M4.87167 23.5032C4.83473 23.5033 4.79833 23.4943 4.76567 23.477C4.733 23.4598 4.70506 23.4348 4.68428 23.4042C2.80497 20.647 3.53443 16.5702 3.93821 15.3594C4.77588 12.8463 6.47798 11.7915 6.54989 11.748C6.60123 11.7172 6.66265 11.7081 6.72073 11.7225C6.77881 11.7369 6.82883 11.7736 6.85989 11.8248C6.89094 11.8759 6.90051 11.9373 6.88649 11.9955C6.87247 12.0536 6.83601 12.1039 6.78506 12.1353C6.76893 12.1451 5.15046 13.1556 4.36789 15.5028C3.98273 16.6583 3.28266 20.5433 5.05863 23.1493C5.08182 23.1834 5.09529 23.2231 5.0976 23.2642C5.09991 23.3053 5.09097 23.3462 5.07174 23.3827C5.05252 23.4191 5.02373 23.4496 4.98848 23.4708C4.95323 23.4921 4.91285 23.5032 4.87167 23.5032Z" fill="url(#paint9_linear_901_4925)"/>
<path d="M10.0623 24.5298C10.0073 24.5298 9.95419 24.5099 9.91291 24.4736C9.84874 24.4173 8.33449 23.0779 7.95747 21.6333C7.56937 20.1447 7.69574 17.1715 8.20827 15.7421C8.70245 14.4163 9.38744 13.1697 10.2416 12.0417C10.2597 12.0175 10.2825 11.9972 10.3086 11.982C10.3348 11.9668 10.3637 11.9569 10.3936 11.9531C10.4236 11.9492 10.4541 11.9513 10.4832 11.9594C10.5123 11.9674 10.5396 11.9813 10.5633 12C10.587 12.0188 10.6067 12.0421 10.6213 12.0686C10.6359 12.095 10.645 12.1242 10.6481 12.1542C10.6513 12.1843 10.6483 12.2147 10.6395 12.2436C10.6308 12.2726 10.6163 12.2994 10.5969 12.3227C9.77642 13.4141 9.11575 14.6169 8.63489 15.8949C8.14592 17.259 8.02544 20.0974 8.39616 21.5188C8.73843 22.8302 10.1969 24.1198 10.2118 24.1328C10.2464 24.1632 10.271 24.2034 10.2822 24.2481C10.2934 24.2928 10.2907 24.3398 10.2745 24.3829C10.2582 24.4261 10.2293 24.4632 10.1914 24.4894C10.1535 24.5157 10.1083 24.5298 10.0623 24.5298Z" fill="url(#paint10_linear_901_4925)"/>
<path d="M18.777 17.3506C18.7232 17.3505 18.6712 17.3313 18.6303 17.2964C18.5893 17.2615 18.5621 17.2132 18.5536 17.1601C18.2912 15.5336 17.7285 14.2323 16.9699 13.4959C15.3574 11.9362 14.0286 10.1077 13.0431 8.09238C13.031 8.06521 13.0243 8.03592 13.0235 8.00618C13.0227 7.97644 13.0278 7.94683 13.0384 7.91904C13.049 7.89125 13.065 7.86583 13.0855 7.84423C13.1059 7.82262 13.1305 7.80526 13.1576 7.79313C13.1848 7.781 13.2141 7.77433 13.2438 7.77352C13.2736 7.77271 13.3032 7.77776 13.331 7.7884C13.3587 7.79903 13.3842 7.81503 13.4058 7.83549C13.4274 7.85594 13.4447 7.88045 13.4569 7.90762C14.4251 9.86657 15.7197 11.6464 17.2854 13.1707C18.3472 14.2011 18.8043 15.8696 19.001 17.0879C19.0062 17.1203 19.0044 17.1535 18.9955 17.1851C18.9867 17.2167 18.971 17.246 18.9498 17.271C18.9285 17.296 18.902 17.316 18.8722 17.3298C18.8424 17.3435 18.8099 17.3506 18.777 17.3506Z" fill="url(#paint11_linear_901_4925)"/>
<path d="M20.9042 17.4388C20.8468 17.4387 20.7917 17.4169 20.7497 17.3777C20.7078 17.3386 20.6823 17.285 20.6783 17.2278C20.6483 16.5702 20.544 15.9181 20.3676 15.2839C19.9061 13.8999 18.0823 12.1827 18.064 12.1656C18.0201 12.1245 17.9943 12.0677 17.9923 12.0076C17.9903 11.9475 18.0123 11.8891 18.0534 11.8452C18.0944 11.8013 18.1513 11.7756 18.2113 11.7736C18.2714 11.7716 18.3298 11.7935 18.3737 11.8346C18.452 11.9081 20.2999 13.6486 20.7973 15.1405C20.9861 15.8111 21.0979 16.5009 21.1305 17.1968C21.1346 17.2567 21.1148 17.3158 21.0753 17.3611C21.0359 17.4064 20.98 17.4342 20.9201 17.4384C20.9148 17.4386 20.9095 17.4388 20.9042 17.4388Z" fill="url(#paint12_linear_901_4925)"/>
<path d="M16.2073 17.3521C16.1682 17.3521 16.1298 17.3419 16.0957 17.3226C16.0617 17.3033 16.0332 17.2755 16.0132 17.2419C15.9931 17.2084 15.982 17.1701 15.9811 17.131C15.9801 17.0919 15.9893 17.0532 16.0078 17.0187C16.0912 16.8884 16.1343 16.7363 16.1317 16.5816C16.1291 16.4269 16.0809 16.2764 15.9932 16.149C15.9496 16.0651 15.9119 15.9782 15.8803 15.8891C15.4639 14.5907 14.8021 13.3842 13.9309 12.3352C13.9099 12.3135 13.8934 12.2878 13.8825 12.2596C13.8716 12.2315 13.8664 12.2014 13.8673 12.1712C13.8682 12.141 13.8751 12.1113 13.8876 12.0838C13.9001 12.0563 13.918 12.0316 13.9403 12.0111C13.9625 11.9906 13.9886 11.9748 14.017 11.9646C14.0455 11.9543 14.0756 11.9499 14.1058 11.9515C14.136 11.9531 14.1655 11.9607 14.1927 11.9739C14.2199 11.9871 14.2442 12.0056 14.2641 12.0284C15.1826 13.1223 15.8778 14.3856 16.3104 15.7469C16.3357 15.8163 16.3656 15.8838 16.3998 15.9492C16.5193 16.1416 16.5832 16.3633 16.5845 16.5897C16.5859 16.8162 16.5245 17.0386 16.4073 17.2324C16.388 17.2686 16.3591 17.2989 16.3239 17.32C16.2887 17.3411 16.2484 17.3522 16.2073 17.3521Z" fill="url(#paint13_linear_901_4925)"/>
<path d="M12.4219 18.1124C12.3618 18.1124 12.3042 18.0886 12.2617 18.0461C12.2192 18.0036 12.1953 17.946 12.1953 17.8859V12C12.1953 11.9399 12.2192 11.8823 12.2617 11.8398C12.3042 11.7973 12.3618 11.7734 12.4219 11.7734C12.482 11.7734 12.5396 11.7973 12.5821 11.8398C12.6246 11.8823 12.6484 11.9399 12.6484 12V17.8859C12.6484 17.946 12.6246 18.0036 12.5821 18.0461C12.5396 18.0886 12.482 18.1124 12.4219 18.1124Z" fill="url(#paint14_linear_901_4925)"/>
<path d="M10.0665 18.5508C9.61564 22.0777 10.9176 25.2192 13.5099 25.915C15.1124 26.3452 17.2882 26.461 18.5869 26.49C19.8856 26.461 22.0614 26.3452 23.6639 25.915C26.2539 25.2199 27.5558 22.0833 27.1085 18.5602L10.0665 18.5508Z" fill="url(#paint15_linear_901_4925)"/>
<path d="M10.3945 22.6406C10.94 24.286 12.0079 25.5119 13.5105 25.9152C15.113 26.3453 17.2888 26.4612 18.5875 26.4901C19.8862 26.4611 22.062 26.3453 23.6645 25.9152C25.167 25.5119 26.2349 24.286 26.7804 22.6406H10.3945Z" fill="url(#paint16_linear_901_4925)"/>
<path d="M18.5742 20.8836C23.2751 20.8836 27.086 19.8391 27.086 18.5507C27.086 17.2623 23.2751 16.2178 18.5742 16.2178C13.8733 16.2178 10.0625 17.2623 10.0625 18.5507C10.0625 19.8391 13.8733 20.8836 18.5742 20.8836Z" fill="url(#paint17_linear_901_4925)"/>
<path d="M13.5927 19.743C13.5768 19.743 13.5609 19.7413 13.5454 19.738C12.2477 19.4626 11.2186 19.0686 10.8594 18.7099C10.8383 18.6888 10.8216 18.6638 10.8102 18.6363C10.7988 18.6089 10.793 18.5794 10.793 18.5496C10.793 18.5199 10.7988 18.4904 10.8102 18.4629C10.8216 18.4354 10.8383 18.4104 10.8594 18.3894C10.9165 18.3338 10.9787 18.2837 11.0452 18.2396C11.0869 18.2111 11.137 18.1974 11.1875 18.2007C11.238 18.2039 11.2859 18.224 11.3236 18.2577C11.3613 18.2913 11.3867 18.3366 11.3958 18.3864C11.4048 18.4361 11.3969 18.4875 11.3733 18.5322C11.7083 18.7361 12.4159 19.0352 13.6396 19.2949C13.6943 19.3066 13.7428 19.3381 13.7757 19.3833C13.8085 19.4286 13.8235 19.4844 13.8177 19.5401C13.8119 19.5957 13.7857 19.6472 13.7441 19.6847C13.7026 19.7222 13.6487 19.7429 13.5927 19.743Z" fill="url(#paint18_linear_901_4925)"/>
<path d="M21.0019 20.1064C20.9434 20.1064 20.8872 20.0837 20.845 20.0433C20.8029 20.0028 20.778 19.9475 20.7756 19.8891C20.7732 19.8307 20.7935 19.7736 20.8322 19.7298C20.8709 19.686 20.925 19.6588 20.9833 19.654C23.9401 19.4073 25.6108 18.7476 25.969 18.3896C26.0115 18.3471 26.0691 18.3232 26.1292 18.3232C26.1894 18.3233 26.247 18.3472 26.2895 18.3897C26.332 18.4322 26.3558 18.4898 26.3558 18.5499C26.3558 18.6101 26.3319 18.6677 26.2894 18.7102C25.7864 19.2125 23.9231 19.8634 21.0209 20.1056C21.0145 20.1062 21.0081 20.1064 21.0019 20.1064Z" fill="url(#paint19_linear_901_4925)"/>
<path d="M24.5397 18.0557C24.518 18.0557 24.4965 18.0526 24.4757 18.0464C23.5896 17.7862 21.6444 17.3496 18.5738 17.3496C17.8937 17.3496 17.2277 17.3711 16.5942 17.4133C16.5642 17.416 16.5339 17.4126 16.5052 17.4034C16.4764 17.3942 16.4498 17.3794 16.4269 17.3598C16.404 17.3401 16.3852 17.3161 16.3717 17.2892C16.3582 17.2622 16.3502 17.2328 16.3482 17.2027C16.3462 17.1726 16.3502 17.1424 16.36 17.1139C16.3698 17.0853 16.3853 17.059 16.4054 17.0366C16.4255 17.0141 16.4499 16.9958 16.4772 16.9829C16.5044 16.97 16.534 16.9626 16.5642 16.9613C17.2076 16.9183 17.8837 16.8965 18.5738 16.8965C21.5443 16.8965 23.4924 17.2854 24.6036 17.6117C24.656 17.627 24.7011 17.6606 24.7306 17.7065C24.7602 17.7524 24.7722 17.8074 24.7644 17.8615C24.7566 17.9155 24.7296 17.9649 24.6883 18.0006C24.647 18.0363 24.5943 18.0559 24.5397 18.0557Z" fill="url(#paint20_linear_901_4925)"/>
<path d="M12.4224 18.1122C12.3681 18.1124 12.3157 18.093 12.2745 18.0578C12.2333 18.0225 12.2062 17.9736 12.1979 17.9201C12.1897 17.8665 12.201 17.8117 12.2297 17.7657C12.2584 17.7197 12.3026 17.6856 12.3544 17.6694C13.0743 17.4509 13.8096 17.2866 14.5541 17.178C14.6131 17.1697 14.673 17.1849 14.7209 17.2204C14.7687 17.256 14.8007 17.3089 14.8098 17.3678C14.8188 17.4267 14.8043 17.4868 14.7694 17.5351C14.7345 17.5834 14.6819 17.616 14.6231 17.6258C13.9013 17.7309 13.1883 17.89 12.4902 18.1017C12.4683 18.1087 12.4454 18.1122 12.4224 18.1122Z" fill="url(#paint21_linear_901_4925)"/>
<path d="M16.3346 19.2106C16.3286 19.2106 16.3224 19.2104 16.3165 19.2099C15.3258 19.1377 14.342 18.9904 13.3736 18.7693C13.3151 18.7555 13.2645 18.719 13.233 18.6678C13.2014 18.6167 13.1915 18.5551 13.2053 18.4966C13.2192 18.4382 13.2557 18.3876 13.3068 18.356C13.358 18.3245 13.4195 18.3145 13.478 18.3284C14.4239 18.5441 15.3847 18.6878 16.3523 18.7581C16.4108 18.7626 16.4652 18.7895 16.5042 18.8333C16.5433 18.8771 16.5638 18.9343 16.5615 18.9929C16.5592 19.0515 16.5343 19.1069 16.4919 19.1475C16.4496 19.1881 16.3932 19.2107 16.3346 19.2106Z" fill="url(#paint22_linear_901_4925)"/>
<path d="M18.5733 19.297C18.2813 19.297 17.9982 19.2931 17.7241 19.2853C17.6641 19.2836 17.6072 19.2581 17.5659 19.2145C17.5246 19.1708 17.5024 19.1126 17.504 19.0525C17.5045 19.0227 17.511 18.9932 17.5231 18.9659C17.5351 18.9386 17.5525 18.914 17.5742 18.8935C17.5959 18.873 17.6215 18.857 17.6494 18.8465C17.6774 18.836 17.7071 18.8312 17.737 18.8324C18.0067 18.8399 18.2854 18.8438 18.5733 18.8439C19.7327 18.8486 20.8911 18.776 22.0408 18.6264C22.0704 18.6221 22.1006 18.6237 22.1296 18.6311C22.1587 18.6385 22.1859 18.6516 22.2098 18.6697C22.2338 18.6877 22.2539 18.7103 22.269 18.7361C22.2842 18.762 22.294 18.7906 22.298 18.8203C22.302 18.85 22.3001 18.8801 22.2924 18.9091C22.2846 18.938 22.2712 18.9652 22.253 18.9889C22.2347 19.0126 22.2119 19.0325 22.1858 19.0473C22.1598 19.0622 22.1311 19.0717 22.1014 19.0754C20.9316 19.2278 19.7529 19.3018 18.5733 19.297Z" fill="url(#paint23_linear_901_4925)"/>
<path d="M23.2973 18.6828C23.282 18.6828 23.2666 18.6813 23.2515 18.6782C22.3963 18.5073 21.531 18.3912 20.6609 18.3306C20.6312 18.3284 20.6023 18.3204 20.5757 18.307C20.5491 18.2936 20.5255 18.2752 20.5061 18.2526C20.4866 18.2301 20.4718 18.2039 20.4625 18.1757C20.4532 18.1474 20.4496 18.1176 20.4518 18.0879C20.4535 18.0581 20.4612 18.0289 20.4745 18.0021C20.4877 17.9753 20.5062 17.9514 20.5288 17.9319C20.5515 17.9124 20.5778 17.8977 20.6063 17.8886C20.6347 17.8794 20.6648 17.8761 20.6945 17.8789C21.5839 17.9408 22.4685 18.0595 23.3427 18.2344C23.3976 18.2457 23.4464 18.277 23.4796 18.3222C23.5128 18.3674 23.5281 18.4233 23.5225 18.4791C23.5168 18.5349 23.4907 18.5866 23.4491 18.6243C23.4075 18.6619 23.3534 18.6827 23.2973 18.6828Z" fill="url(#paint24_linear_901_4925)"/>
<path d="M15.5834 18.4129C15.5256 18.4127 15.47 18.3904 15.428 18.3506C15.3861 18.3108 15.3609 18.2565 15.3578 18.1987C15.3546 18.141 15.3736 18.0842 15.411 18.04C15.4483 17.9958 15.5011 17.9676 15.5586 17.9612C16.5598 17.853 17.5663 17.8001 18.5734 17.8028C18.9143 17.8028 19.2548 17.8085 19.5852 17.8194C19.6149 17.8204 19.6442 17.8272 19.6712 17.8395C19.6983 17.8518 19.7228 17.8693 19.7431 17.8911C19.7634 17.9128 19.7793 17.9383 19.7897 17.9662C19.8002 17.994 19.8051 18.0237 19.8041 18.0534C19.8031 18.0831 19.7963 18.1124 19.784 18.1395C19.7717 18.1666 19.7542 18.191 19.7325 18.2113C19.7107 18.2317 19.6852 18.2475 19.6574 18.258C19.6295 18.2684 19.5999 18.2733 19.5701 18.2723C19.2447 18.2615 18.9095 18.256 18.5734 18.256C17.583 18.2533 16.5932 18.3052 15.6086 18.4115C15.6002 18.4124 15.5918 18.4129 15.5834 18.4129Z" fill="url(#paint25_linear_901_4925)"/>
<path d="M18.5734 20.2027C17.3627 20.2078 16.1531 20.1329 14.9523 19.9785C14.8928 19.9705 14.8388 19.9392 14.8024 19.8914C14.7659 19.8437 14.7499 19.7834 14.7579 19.7238C14.7658 19.6643 14.7972 19.6103 14.8449 19.5739C14.8927 19.5374 14.953 19.5214 15.0125 19.5294C16.1933 19.6811 17.3829 19.7547 18.5734 19.7496C18.8995 19.7496 19.2152 19.7449 19.5204 19.7355C19.5503 19.7344 19.5801 19.7391 19.6082 19.7495C19.6362 19.76 19.6619 19.7758 19.6838 19.7962C19.7057 19.8167 19.7233 19.8412 19.7357 19.8685C19.748 19.8957 19.7549 19.9252 19.7558 19.9551C19.7567 19.985 19.7516 20.0148 19.741 20.0427C19.7303 20.0707 19.7142 20.0963 19.6936 20.118C19.673 20.1397 19.6483 20.1571 19.6209 20.1692C19.5935 20.1813 19.564 20.1878 19.5341 20.1884C19.2245 20.1978 18.9043 20.2026 18.5734 20.2027Z" fill="url(#paint26_linear_901_4925)"/>
<path d="M13.3801 1.8125C13.3801 1.8125 12.5403 2.12101 12.3355 2.77648C12.1991 3.23868 12.0955 3.70992 12.0254 4.18669L12.9555 4.33774C12.9555 4.33774 13.0114 2.63311 13.3801 1.8125Z" fill="url(#paint27_linear_901_4925)"/>
<path d="M14.8102 25.4761C14.7664 25.4761 14.7235 25.4633 14.6868 25.4392C14.6549 25.4183 13.8987 24.9103 13.1064 23.2661C12.8436 22.6493 12.6915 21.9911 12.657 21.3215C12.6546 21.2919 12.658 21.262 12.6671 21.2337C12.6762 21.2053 12.6908 21.1791 12.71 21.1564C12.7293 21.1337 12.7528 21.115 12.7793 21.1014C12.8058 21.0878 12.8347 21.0796 12.8643 21.0771C12.894 21.0744 12.924 21.0775 12.9525 21.0865C12.981 21.0955 13.0074 21.11 13.0301 21.1293C13.0529 21.1486 13.0716 21.1723 13.0851 21.1989C13.0986 21.2255 13.1067 21.2546 13.1088 21.2843C13.1405 21.8982 13.2777 22.5021 13.5143 23.0694C14.2443 24.5838 14.9293 25.0564 14.9361 25.0609C14.9765 25.0879 15.0072 25.1272 15.0236 25.173C15.04 25.2188 15.0412 25.2686 15.0271 25.3152C15.013 25.3617 14.9843 25.4025 14.9453 25.4315C14.9062 25.4605 14.8589 25.4761 14.8102 25.4761Z" fill="url(#paint28_linear_901_4925)"/>
<path d="M12.0197 23.8964C11.9853 23.8965 11.9512 23.8887 11.9203 23.8736C11.8893 23.8585 11.8621 23.8365 11.841 23.8093C11.2186 23.0112 11.0106 21.6617 10.9458 20.6701C10.9439 20.6404 10.9478 20.6107 10.9573 20.5825C10.9669 20.5543 10.9819 20.5283 11.0015 20.5059C11.0212 20.4835 11.045 20.4652 11.0717 20.4521C11.0984 20.4389 11.1274 20.4311 11.1571 20.4292C11.1868 20.4273 11.2166 20.4312 11.2448 20.4407C11.2729 20.4503 11.299 20.4653 11.3213 20.4849C11.3437 20.5046 11.362 20.5284 11.3752 20.5551C11.3883 20.5818 11.3961 20.6108 11.398 20.6405C11.4837 21.9525 11.768 22.9789 12.1981 23.5305C12.2242 23.5639 12.2404 23.604 12.2448 23.6462C12.2492 23.6884 12.2417 23.731 12.2231 23.7691C12.2045 23.8072 12.1756 23.8394 12.1397 23.8619C12.1037 23.8844 12.0622 23.8964 12.0197 23.8964Z" fill="url(#paint29_linear_901_4925)"/>
<path d="M16.7575 25.5129C16.7241 25.513 16.6912 25.5057 16.6611 25.4915C16.6309 25.4774 16.6042 25.4567 16.583 25.431C16.5253 25.3615 15.1647 23.7128 14.846 22.524C14.7723 22.2361 14.7166 21.944 14.6794 21.6492C14.6722 21.59 14.6887 21.5304 14.7252 21.4833C14.7617 21.4362 14.8153 21.4053 14.8744 21.3975C14.9335 21.3896 14.9933 21.4054 15.0409 21.4413C15.0884 21.4772 15.1199 21.5305 15.1285 21.5894C15.1633 21.8648 15.2151 22.1378 15.2836 22.4067C15.5772 23.5006 16.9182 25.1254 16.9317 25.1417C16.9592 25.1747 16.9766 25.215 16.9821 25.2576C16.9875 25.3003 16.9807 25.3436 16.9625 25.3825C16.9442 25.4215 16.9153 25.4544 16.879 25.4775C16.8427 25.5006 16.8005 25.5129 16.7575 25.5129Z" fill="url(#paint30_linear_901_4925)"/>
<path d="M22.4379 25.3672C22.389 25.3673 22.3415 25.3516 22.3023 25.3224C22.2631 25.2933 22.2344 25.2523 22.2204 25.2055C22.2064 25.1587 22.208 25.1086 22.2247 25.0628C22.2415 25.0169 22.2727 24.9777 22.3135 24.951C22.3164 24.9491 22.8428 24.5729 23.5674 23.0696C23.7881 22.5461 23.9209 21.9898 23.9605 21.423C23.9628 21.393 23.9711 21.3637 23.9849 21.3369C23.9987 21.31 24.0177 21.2862 24.0408 21.2669C24.0639 21.2475 24.0906 21.2329 24.1194 21.224C24.1482 21.2151 24.1785 21.212 24.2085 21.215C24.2386 21.2179 24.2677 21.2268 24.2942 21.2411C24.3207 21.2555 24.3441 21.275 24.363 21.2985C24.3819 21.322 24.3959 21.349 24.4042 21.378C24.4125 21.407 24.415 21.4373 24.4114 21.4673C24.3682 22.0872 24.2208 22.6953 23.9753 23.2662C23.1965 24.8827 22.6243 25.2891 22.5617 25.3302C22.5249 25.3543 22.4819 25.3672 22.4379 25.3672Z" fill="url(#paint31_linear_901_4925)"/>
<path d="M25.0622 23.896C25.0198 23.896 24.9782 23.884 24.9423 23.8615C24.9063 23.839 24.8774 23.8069 24.8588 23.7687C24.8403 23.7306 24.8327 23.688 24.8372 23.6458C24.8416 23.6036 24.8578 23.5635 24.8839 23.5301C25.295 23.0031 25.5662 22.0758 25.6687 20.8486C25.6707 20.8189 25.6788 20.7898 25.6923 20.7632C25.7058 20.7365 25.7245 20.7129 25.7473 20.6936C25.77 20.6743 25.7965 20.6598 25.8249 20.6508C25.8534 20.6419 25.8834 20.6388 25.9131 20.6416C25.9428 20.6441 25.9717 20.6524 25.9981 20.666C26.0246 20.6797 26.0481 20.6984 26.0673 20.7211C26.0865 20.7438 26.1011 20.7701 26.1101 20.7985C26.1191 20.8268 26.1225 20.8567 26.12 20.8863C26.0437 21.8034 25.8291 23.0549 25.2409 23.809C25.2198 23.8362 25.1926 23.8581 25.1617 23.8732C25.1307 23.8883 25.0967 23.8961 25.0622 23.896Z" fill="url(#paint32_linear_901_4925)"/>
<path d="M20.5603 25.5123C20.519 25.5123 20.4786 25.501 20.4432 25.4797C20.4079 25.4583 20.3791 25.4277 20.3599 25.3911C20.3407 25.3546 20.3319 25.3135 20.3344 25.2723C20.3369 25.231 20.3506 25.1913 20.3741 25.1573C20.3851 25.141 21.5029 23.5091 21.7989 22.406C21.8684 22.1336 21.9207 21.8572 21.9555 21.5784C21.9589 21.5484 21.9682 21.5194 21.9829 21.4931C21.9975 21.4668 22.0173 21.4437 22.0411 21.4251C22.0648 21.4065 22.092 21.3929 22.1211 21.3849C22.1501 21.377 22.1805 21.375 22.2104 21.3789C22.2402 21.3828 22.269 21.3927 22.295 21.4079C22.3211 21.4231 22.3438 21.4434 22.3619 21.4675C22.38 21.4916 22.3931 21.519 22.4004 21.5482C22.4078 21.5775 22.4092 21.6079 22.4047 21.6377C22.3674 21.9361 22.3112 22.2319 22.2366 22.5233C21.9204 23.7022 20.7949 25.3449 20.7471 25.4143C20.7263 25.4446 20.6984 25.4694 20.6658 25.4864C20.6333 25.5035 20.5971 25.5124 20.5603 25.5123Z" fill="url(#paint33_linear_901_4925)"/>
<path d="M18.6797 25.731C18.6196 25.731 18.562 25.7071 18.5195 25.6646C18.477 25.6222 18.4531 25.5645 18.4531 25.5044V21.8633C18.4531 21.8032 18.477 21.7456 18.5195 21.7031C18.562 21.6606 18.6196 21.6367 18.6797 21.6367C18.7398 21.6367 18.7974 21.6606 18.8399 21.7031C18.8824 21.7456 18.9062 21.8032 18.9062 21.8633V25.5044C18.9062 25.5645 18.8824 25.6222 18.8399 25.6646C18.7974 25.7071 18.7398 25.731 18.6797 25.731Z" fill="url(#paint34_linear_901_4925)"/>
<defs>
<linearGradient id="paint0_linear_901_4925" x1="10.963" y1="3.08466" x2="12.6606" y2="3.08466" gradientUnits="userSpaceOnUse">
<stop stop-color="#E0A671"/>
<stop offset="1" stop-color="#BC7337"/>
</linearGradient>
<linearGradient id="paint1_linear_901_4925" x1="10.6887" y1="27.2727" x2="10.6887" y2="25.8991" gradientUnits="userSpaceOnUse">
<stop stop-color="#DE9766"/>
<stop offset="0.995" stop-color="#A05924"/>
</linearGradient>
<linearGradient id="paint2_linear_901_4925" x1="11.4963" y1="27.6328" x2="11.4963" y2="25.9557" gradientUnits="userSpaceOnUse">
<stop stop-color="#DE9766"/>
<stop offset="0.995" stop-color="#A05924"/>
</linearGradient>
<linearGradient id="paint3_linear_901_4925" x1="12.2577" y1="27.7709" x2="12.2577" y2="25.9335" gradientUnits="userSpaceOnUse">
<stop stop-color="#DE9766"/>
<stop offset="0.995" stop-color="#A05924"/>
</linearGradient>
<linearGradient id="paint4_linear_901_4925" x1="13.7997" y1="27.2723" x2="13.7997" y2="25.8477" gradientUnits="userSpaceOnUse">
<stop stop-color="#DE9766"/>
<stop offset="0.995" stop-color="#A05924"/>
</linearGradient>
<linearGradient id="paint5_linear_901_4925" x1="13.0046" y1="27.6333" x2="13.0046" y2="25.862" gradientUnits="userSpaceOnUse">
<stop stop-color="#DE9766"/>
<stop offset="0.995" stop-color="#A05924"/>
</linearGradient>
<linearGradient id="paint6_linear_901_4925" x1="1.8124" y1="15.3008" x2="22.7042" y2="15.3008" gradientUnits="userSpaceOnUse">
<stop stop-color="#EABA8F"/>
<stop offset="1" stop-color="#D69152"/>
</linearGradient>
<linearGradient id="paint7_linear_901_4925" x1="12.2583" y1="18.9726" x2="12.2583" y2="26.4904" gradientUnits="userSpaceOnUse">
<stop stop-color="#D69152" stop-opacity="0"/>
<stop offset="1" stop-color="#D69152"/>
</linearGradient>
<linearGradient id="paint8_linear_901_4925" x1="8.42038" y1="7.77343" x2="8.42038" y2="25.5597" gradientUnits="userSpaceOnUse">
<stop stop-color="#DE9766"/>
<stop offset="1" stop-color="#CC8143"/>
</linearGradient>
<linearGradient id="paint9_linear_901_4925" x1="5.17438" y1="11.7151" x2="5.17438" y2="23.5032" gradientUnits="userSpaceOnUse">
<stop stop-color="#DE9766"/>
<stop offset="1" stop-color="#CC8143"/>
</linearGradient>
<linearGradient id="paint10_linear_901_4925" x1="9.18816" y1="11.9558" x2="9.18816" y2="24.5298" gradientUnits="userSpaceOnUse">
<stop stop-color="#DE9766"/>
<stop offset="1" stop-color="#CC8143"/>
</linearGradient>
<linearGradient id="paint11_linear_901_4925" x1="16.0135" y1="7.77343" x2="16.0135" y2="17.3505" gradientUnits="userSpaceOnUse">
<stop stop-color="#DE9766"/>
<stop offset="1" stop-color="#CC8143"/>
</linearGradient>
<linearGradient id="paint12_linear_901_4925" x1="19.5617" y1="11.7732" x2="19.5617" y2="17.4389" gradientUnits="userSpaceOnUse">
<stop stop-color="#DE9766"/>
<stop offset="1" stop-color="#CC8143"/>
</linearGradient>
<linearGradient id="paint13_linear_901_4925" x1="15.2281" y1="11.9553" x2="15.2281" y2="17.3521" gradientUnits="userSpaceOnUse">
<stop stop-color="#DE9766"/>
<stop offset="1" stop-color="#CC8143"/>
</linearGradient>
<linearGradient id="paint14_linear_901_4925" x1="12.4219" y1="11.7735" x2="12.4219" y2="18.1125" gradientUnits="userSpaceOnUse">
<stop stop-color="#DE9766"/>
<stop offset="1" stop-color="#CC8143"/>
</linearGradient>
<linearGradient id="paint15_linear_901_4925" x1="9.97846" y1="22.5204" x2="27.1952" y2="22.5204" gradientUnits="userSpaceOnUse">
<stop stop-color="#EABA8F"/>
<stop offset="1" stop-color="#D69152"/>
</linearGradient>
<linearGradient id="paint16_linear_901_4925" x1="18.5875" y1="22.6406" x2="18.5875" y2="26.4901" gradientUnits="userSpaceOnUse">
<stop stop-color="#D69152" stop-opacity="0"/>
<stop offset="1" stop-color="#D69152"/>
</linearGradient>
<linearGradient id="paint17_linear_901_4925" x1="10.0625" y1="18.5507" x2="27.086" y2="18.5507" gradientUnits="userSpaceOnUse">
<stop stop-color="#F4D8C1"/>
<stop offset="1" stop-color="#EAB788"/>
</linearGradient>
<linearGradient id="paint18_linear_901_4925" x1="10.7931" y1="18.9715" x2="13.8193" y2="18.9715" gradientUnits="userSpaceOnUse">
<stop stop-color="#EAB788"/>
<stop offset="1" stop-color="#DB9F6E"/>
</linearGradient>
<linearGradient id="paint19_linear_901_4925" x1="20.7757" y1="19.2147" x2="26.3557" y2="19.2147" gradientUnits="userSpaceOnUse">
<stop stop-color="#EAB788"/>
<stop offset="1" stop-color="#DB9F6E"/>
</linearGradient>
<linearGradient id="paint20_linear_901_4925" x1="16.3525" y1="17.4761" x2="24.7664" y2="17.4761" gradientUnits="userSpaceOnUse">
<stop stop-color="#EAB788"/>
<stop offset="1" stop-color="#DB9F6E"/>
</linearGradient>
<linearGradient id="paint21_linear_901_4925" x1="12.1958" y1="17.6438" x2="14.8153" y2="17.6438" gradientUnits="userSpaceOnUse">
<stop stop-color="#EAB788"/>
<stop offset="1" stop-color="#DB9F6E"/>
</linearGradient>
<linearGradient id="paint22_linear_901_4925" x1="13.1992" y1="18.7664" x2="16.561" y2="18.7664" gradientUnits="userSpaceOnUse">
<stop stop-color="#EAB788"/>
<stop offset="1" stop-color="#DB9F6E"/>
</linearGradient>
<linearGradient id="paint23_linear_901_4925" x1="17.5038" y1="18.9606" x2="22.2977" y2="18.9606" gradientUnits="userSpaceOnUse">
<stop stop-color="#EAB788"/>
<stop offset="1" stop-color="#DB9F6E"/>
</linearGradient>
<linearGradient id="paint24_linear_901_4925" x1="20.4513" y1="18.2803" x2="23.5237" y2="18.2803" gradientUnits="userSpaceOnUse">
<stop stop-color="#EAB788"/>
<stop offset="1" stop-color="#DB9F6E"/>
</linearGradient>
<linearGradient id="paint25_linear_901_4925" x1="15.357" y1="18.1078" x2="19.8042" y2="18.1078" gradientUnits="userSpaceOnUse">
<stop stop-color="#EAB788"/>
<stop offset="1" stop-color="#DB9F6E"/>
</linearGradient>
<linearGradient id="paint26_linear_901_4925" x1="14.7559" y1="19.865" x2="19.7539" y2="19.865" gradientUnits="userSpaceOnUse">
<stop stop-color="#EAB788"/>
<stop offset="1" stop-color="#DB9F6E"/>
</linearGradient>
<linearGradient id="paint27_linear_901_4925" x1="12.0253" y1="3.07513" x2="13.3801" y2="3.07513" gradientUnits="userSpaceOnUse">
<stop stop-color="#E0A671"/>
<stop offset="1" stop-color="#BC7337"/>
</linearGradient>
<linearGradient id="paint28_linear_901_4925" x1="13.8464" y1="21.0763" x2="13.8464" y2="25.4761" gradientUnits="userSpaceOnUse">
<stop stop-color="#DE9766"/>
<stop offset="1" stop-color="#CC8143"/>
</linearGradient>
<linearGradient id="paint29_linear_901_4925" x1="11.5957" y1="20.4289" x2="11.5957" y2="23.8964" gradientUnits="userSpaceOnUse">
<stop stop-color="#DE9766"/>
<stop offset="1" stop-color="#CC8143"/>
</linearGradient>
<linearGradient id="paint30_linear_901_4925" x1="15.8304" y1="21.3929" x2="15.8304" y2="25.5129" gradientUnits="userSpaceOnUse">
<stop stop-color="#DE9766"/>
<stop offset="1" stop-color="#CC8143"/>
</linearGradient>
<linearGradient id="paint31_linear_901_4925" x1="23.3117" y1="21.2185" x2="23.3117" y2="25.3671" gradientUnits="userSpaceOnUse">
<stop stop-color="#DE9766"/>
<stop offset="1" stop-color="#CC8143"/>
</linearGradient>
<linearGradient id="paint32_linear_901_4925" x1="25.4784" y1="20.6405" x2="25.4784" y2="23.896" gradientUnits="userSpaceOnUse">
<stop stop-color="#DE9766"/>
<stop offset="1" stop-color="#CC8143"/>
</linearGradient>
<linearGradient id="paint33_linear_901_4925" x1="21.3703" y1="21.3814" x2="21.3703" y2="25.5124" gradientUnits="userSpaceOnUse">
<stop stop-color="#DE9766"/>
<stop offset="1" stop-color="#CC8143"/>
</linearGradient>
<linearGradient id="paint34_linear_901_4925" x1="18.6797" y1="21.6367" x2="18.6797" y2="25.7309" gradientUnits="userSpaceOnUse">
<stop stop-color="#DE9766"/>
<stop offset="1" stop-color="#CC8143"/>
</linearGradient>
</defs>
</svg>
