<svg width="23" height="23" viewBox="0 0 23 23" fill="none" xmlns="http://www.w3.org/2000/svg">
<g clip-path="url(#clip0_901_4987)">
<mask id="mask0_901_4987" style="mask-type:luminance" maskUnits="userSpaceOnUse" x="0" y="0" width="23" height="23">
<path d="M0 -5.96046e-07H23V23H0V-5.96046e-07Z" fill="white"/>
</mask>
<g mask="url(#mask0_901_4987)">
<path d="M14.221 3.84018C13.8051 3.84018 13.4026 3.88013 13.0159 3.94731C12.5196 3.88376 11.3575 3.8075 10.8418 3.8075C5.71398 3.8075 1.22656 5.73042 1.22656 12.4615C1.22656 17.9307 5.49306 22.3643 11.5015 22.3643C17.51 22.3643 22.3799 17.9307 22.3799 12.4615C22.3799 5.65294 16.7001 3.84018 14.221 3.84018Z" fill="#DD2E44"/>
<path d="M5.71289 0.660227C6.70371 1.65044 7.38947 2.03175 7.69452 3.63207C7.87489 4.5787 9.06605 4.54602 9.06605 4.54602C9.06605 4.54602 6.70371 5.6137 5.71289 6.60391C5.71289 6.60391 8.68473 5.6137 9.67555 5.6137C9.67555 5.6137 11.6566 6.60391 11.6566 7.59473C11.6566 7.59473 11.6566 5.6137 10.6664 5.6137C10.6664 5.6137 13.6376 5.6137 13.6376 7.59473C13.6376 7.59473 13.6376 4.62228 12.6474 4.62228C12.6474 4.62228 15.6198 3.63207 16.61 4.62228C16.61 4.62228 15.5902 3.58123 13.6376 3.63207C13.6376 3.63207 14.629 2.64125 16.61 2.64125C16.61 2.64125 13.4094 1.7267 12.4192 3.70833C12.4192 3.70833 11.5803 2.87004 13.2569 1.19346C13.2569 1.19346 10.6664 1.65044 10.6664 3.63207C10.6664 3.63207 9.727 3.60846 9.06605 2.87004C7.77018 1.42225 5.71289 0.660227 5.71289 0.660227Z" fill="#77B255"/>
</g>
</g>
<defs>
<clipPath id="clip0_901_4987">
<rect width="23" height="23" fill="white"/>
</clipPath>
</defs>
</svg>
