<svg width="64" height="64" viewBox="0 0 64 64" fill="none" xmlns="http://www.w3.org/2000/svg">
<g clip-path="url(#clip0_901_5035)">
<path d="M40.4208 41.5096C35.8308 41.5096 31.2308 39.7596 27.7308 36.2596C20.7408 29.2696 20.7408 17.8796 27.7308 10.8896C31.1208 7.49965 35.6208 5.63965 40.4208 5.63965C45.2108 5.63965 49.7208 7.50965 53.1008 10.8896C60.0908 17.8796 60.0908 29.2696 53.1008 36.2596C49.6108 39.7596 45.0208 41.5096 40.4208 41.5096ZM40.4208 7.57965C36.1508 7.57965 32.1308 9.23965 29.1108 12.2696C22.8708 18.5096 22.8708 28.6597 29.1108 34.8997C35.3508 41.1397 45.5008 41.1397 51.7408 34.8997C57.9808 28.6597 57.9808 18.5096 51.7408 12.2696C48.7208 9.23965 44.7008 7.57965 40.4208 7.57965Z" fill="black"/>
<path d="M40.4196 47.14C34.3796 47.14 28.3396 44.84 23.7496 40.25C19.2996 35.8 16.8396 29.88 16.8396 23.58C16.8396 17.28 19.2896 11.36 23.7496 6.91C28.1996 2.45 34.1296 0 40.4196 0C46.7196 0 52.6396 2.45 57.0896 6.91C61.5496 11.36 63.9996 17.28 63.9996 23.58C63.9996 29.88 61.5496 35.8 57.0896 40.25C52.4996 44.84 46.4596 47.14 40.4196 47.14ZM40.4196 1.94C34.6396 1.94 29.2096 4.19 25.1196 8.28C21.0296 12.37 18.7796 17.8 18.7796 23.58C18.7796 29.36 21.0296 34.79 25.1196 38.88C33.5596 47.32 47.2796 47.31 55.7196 38.88C59.8096 34.79 62.0596 29.36 62.0596 23.58C62.0596 17.8 59.8096 12.37 55.7196 8.28C51.6396 4.19 46.1996 1.94 40.4196 1.94ZM7.85959 64C7.08959 64 6.31959 63.71 5.72959 63.12L0.869587 58.26C0.307661 57.6955 -0.0078125 56.9315 -0.0078125 56.135C-0.0078125 55.3385 0.307661 54.5745 0.869587 54.01L13.8196 41.06C14.3841 40.4981 15.1481 40.1826 15.9446 40.1826C16.7411 40.1826 17.5051 40.4981 18.0696 41.06L22.9296 45.92C23.4996 46.49 23.8096 47.24 23.8096 48.04C23.8096 48.84 23.4996 49.6 22.9296 50.16L9.97959 63.12C9.39959 63.71 8.62959 64 7.85959 64ZM7.10959 61.75C7.51959 62.17 8.19959 62.17 8.61959 61.75L21.5596 48.8C21.9696 48.38 21.9696 47.71 21.5596 47.29L16.6996 42.43C16.4978 42.2327 16.2268 42.1223 15.9446 42.1223C15.6624 42.1223 15.3914 42.2327 15.1896 42.43L2.24959 55.39C2.0523 55.5918 1.94184 55.8628 1.94184 56.145C1.94184 56.4272 2.0523 56.6982 2.24959 56.9L7.10959 61.75Z" fill="black"/>
<path d="M22.0696 47.3997C21.8778 47.4013 21.6898 47.3457 21.5297 47.24C21.3695 47.1343 21.2445 46.9834 21.1705 46.8064C21.0965 46.6294 21.0768 46.4344 21.1141 46.2462C21.1513 46.058 21.2438 45.8852 21.3796 45.7497L26.1596 40.9697C26.5396 40.5897 27.1496 40.5897 27.5296 40.9697C27.9096 41.3497 27.9096 41.9597 27.5296 42.3397L22.7496 47.1197C22.5596 47.2997 22.3096 47.3997 22.0696 47.3997ZM17.5696 42.8997C17.3778 42.9013 17.1898 42.8457 17.0297 42.74C16.8695 42.6343 16.7445 42.4834 16.6705 42.3064C16.5965 42.1294 16.5768 41.9344 16.6141 41.7462C16.6513 41.558 16.7438 41.3852 16.8796 41.2497L21.6596 36.4697C22.0396 36.0897 22.6496 36.0897 23.0296 36.4697C23.4096 36.8497 23.4096 37.4597 23.0296 37.8397L18.2496 42.6197C18.0696 42.8097 17.8196 42.8997 17.5696 42.8997ZM40.4196 34.2597C37.3696 34.2597 34.3196 33.8197 31.2896 32.9497C30.8696 32.8297 30.5896 32.4497 30.5896 32.0197C30.5896 26.5997 34.9996 22.1897 40.4196 22.1897C45.8396 22.1897 50.2496 26.5997 50.2496 32.0197C50.2496 32.4497 49.9596 32.8297 49.5496 32.9497C46.5196 33.8197 43.4696 34.2597 40.4196 34.2597ZM32.5696 31.2897C37.7896 32.6597 43.0596 32.6597 48.2796 31.2897C47.9096 27.2797 44.5296 24.1297 40.4196 24.1297C36.3096 24.1297 32.9396 27.2797 32.5696 31.2897ZM40.4196 21.1797C37.6596 21.1797 35.4196 18.9397 35.4196 16.1797C35.4196 13.4197 37.6596 11.1797 40.4196 11.1797C43.1796 11.1797 45.4196 13.4197 45.4196 16.1797C45.4296 18.9297 43.1796 21.1797 40.4196 21.1797ZM40.4196 13.1097C39.8144 13.1097 39.2228 13.2892 38.7196 13.6254C38.2163 13.9616 37.8241 14.4395 37.5925 14.9987C37.3609 15.5578 37.3003 16.1731 37.4184 16.7667C37.5365 17.3602 37.8279 17.9055 38.2559 18.3334C38.6838 18.7614 39.229 19.0528 39.8226 19.1709C40.4162 19.289 41.0315 19.2284 41.5906 18.9968C42.1498 18.7652 42.6277 18.3729 42.9639 17.8697C43.3001 17.3665 43.4796 16.7749 43.4796 16.1697C43.4896 14.4797 42.1096 13.1097 40.4196 13.1097Z" fill="black"/>
</g>
<defs>
<clipPath id="clip0_901_5035">
<rect width="64" height="64" fill="white"/>
</clipPath>
</defs>
</svg>
