<svg width="23" height="23" viewBox="0 0 23 23" fill="none" xmlns="http://www.w3.org/2000/svg">
<g clip-path="url(#clip0_901_5019)">
<path d="M11.5 22.2812C17.4543 22.2812 22.2812 17.4543 22.2812 11.5C22.2812 5.54568 17.4543 0.71875 11.5 0.71875C5.54568 0.71875 0.71875 5.54568 0.71875 11.5C0.71875 17.4543 5.54568 22.2812 11.5 22.2812Z" fill="#EEF5FD"/>
<path d="M1.70877 12.5773C1.71391 10.47 2.33651 8.41042 3.49958 6.65316C4.66266 4.8959 6.31522 3.51802 8.25296 2.68985C10.1907 1.86168 12.3287 1.61955 14.4025 1.99337C16.4764 2.3672 18.3953 3.3406 19.9219 4.79324C19.0122 3.60941 17.8666 2.62741 16.5576 1.90946C15.2485 1.19152 13.8047 0.753272 12.3174 0.622496C10.8302 0.49172 9.33199 0.671262 7.91776 1.14975C6.50353 1.62823 5.2041 2.39523 4.10178 3.40215C2.99947 4.40907 2.1183 5.63396 1.5141 6.99922C0.909905 8.36447 0.595851 9.84034 0.591836 11.3333C0.587821 12.8263 0.893934 14.3038 1.49078 15.6723C2.08763 17.0408 2.96219 18.2704 4.05908 19.2832C2.53629 17.38 1.70732 15.0148 1.70877 12.5773Z" fill="#D7E2F2"/>
<path d="M11.5019 22.2816C12.9878 22.279 14.4572 21.9693 15.8177 21.3719C17.1783 20.7745 18.4007 19.9023 19.4081 18.81V18.5297C19.3433 16.5408 18.5309 14.6494 17.133 13.2331C15.735 11.8169 13.8545 10.9798 11.8665 10.8891C9.87863 10.7984 7.92961 11.4606 6.40848 12.7437C4.88736 14.0267 3.90601 15.8362 3.66031 17.8109L3.61719 18.5297V18.81C4.62218 19.8996 5.84107 20.7703 7.19771 21.3676C8.55434 21.9649 10.0196 22.276 11.5019 22.2816Z" fill="#96D7FF"/>
<path d="M4.40523 19.4063V19.1188L4.45555 18.4359C4.67212 16.5004 5.59173 14.7117 7.03986 13.4093C8.488 12.1069 10.3639 11.3814 12.3115 11.3706C13.7803 11.3723 15.2185 11.791 16.4587 12.5781C15.0626 11.4244 13.3103 10.7895 11.4993 10.7812C9.55247 10.7923 7.67751 11.5179 6.23055 12.8205C4.7836 14.123 3.86546 15.9116 3.65055 17.8466L3.60742 18.5653V18.8456C4.24779 19.5266 4.97239 20.1232 5.76367 20.6209C5.27986 20.2521 4.82566 19.846 4.40523 19.4063Z" fill="#86C3EF"/>
<path d="M11.5 13.6562C14.2787 13.6562 16.5312 11.4037 16.5312 8.625C16.5312 5.84632 14.2787 3.59375 11.5 3.59375C8.72132 3.59375 6.46875 5.84632 6.46875 8.625C6.46875 11.4037 8.72132 13.6562 11.5 13.6562Z" fill="#FF9797"/>
<path d="M7.18731 9.16296C7.18869 8.26838 7.42856 7.39035 7.8822 6.61933C8.33585 5.84831 8.98686 5.21219 9.76817 4.7765C10.5495 4.34082 11.4328 4.12132 12.3272 4.14064C13.2216 4.15996 14.0946 4.41738 14.8564 4.8864C14.3331 4.43505 13.7224 4.09634 13.0624 3.89139C12.4025 3.68644 11.7074 3.61965 11.0204 3.69518C10.3335 3.77071 9.66952 3.98693 9.06985 4.33038C8.47018 4.67382 7.94769 5.13712 7.53496 5.69139C7.12223 6.24566 6.8281 6.87901 6.67093 7.55196C6.51375 8.2249 6.49689 8.92301 6.6214 9.60276C6.7459 10.2825 7.00911 10.9293 7.3946 11.5029C7.78009 12.0764 8.27961 12.5644 8.862 12.9364C8.33187 12.4616 7.90848 11.8798 7.6198 11.2294C7.33112 10.5789 7.18371 9.87459 7.18731 9.16296Z" fill="#E47979"/>
<path d="M21.7071 14.9499C21.2855 14.4195 20.7566 13.9843 20.155 13.6727C19.5534 13.361 18.8928 13.1801 18.2164 13.1416C17.54 13.1031 16.8631 13.2079 16.2301 13.4493C15.5971 13.6907 15.0222 14.0631 14.5431 14.5421C14.0641 15.0212 13.6917 15.5961 13.4503 16.2291C13.2089 16.8622 13.104 17.539 13.1425 18.2154C13.181 18.8918 13.362 19.5525 13.6737 20.154C13.9853 20.7556 14.4205 21.2845 14.9508 21.7061C16.5181 21.1706 17.9419 20.2832 19.113 19.1121C20.2842 17.9409 21.1715 16.5171 21.7071 14.9499Z" fill="#D7E2F2"/>
<path d="M17.1856 13.2324C16.2715 13.3829 15.4204 13.7946 14.735 14.4179C14.0496 15.0412 13.5592 15.8495 13.3229 16.7453C13.0866 17.6411 13.1145 18.5862 13.4033 19.4665C13.692 20.3468 14.2293 21.1247 14.9503 21.7065C16.6484 21.1311 18.1772 20.1433 19.3994 18.8315V18.5512C19.3566 16.5629 18.5662 14.6638 17.1856 13.2324Z" fill="#86C3EF"/>
<path d="M17.9688 22.2812C20.3505 22.2812 22.2812 20.3505 22.2812 17.9688C22.2812 15.587 20.3505 13.6562 17.9688 13.6562C15.587 13.6562 13.6562 15.587 13.6562 17.9688C13.6562 20.3505 15.587 22.2812 17.9688 22.2812Z" fill="#FFC661"/>
<path d="M14.1957 18.3289C14.1959 17.5776 14.3923 16.8394 14.7656 16.1873C15.1389 15.5353 15.676 14.9921 16.3238 14.6116C16.9716 14.2311 17.7076 14.0264 18.4589 14.0178C19.2101 14.0092 19.9506 14.197 20.6069 14.5626C20.1363 14.208 19.5981 13.9537 19.0254 13.8152C18.4527 13.6767 17.8577 13.657 17.2771 13.7574C16.6965 13.8578 16.1426 14.076 15.6496 14.3988C15.1566 14.7215 14.735 15.1418 14.4108 15.6338C14.0866 16.1258 13.8666 16.679 13.7645 17.2593C13.6624 17.8396 13.6802 18.4347 13.817 19.0078C13.9538 19.581 14.2065 20.12 14.5597 20.5916C14.9129 21.0633 15.3589 21.4576 15.8704 21.7501C15.3479 21.3462 14.9252 20.8276 14.6348 20.2344C14.3445 19.6413 14.1942 18.9893 14.1957 18.3289Z" fill="#E49F4E"/>
<path d="M19.5586 17.3145H18.8398V16.5957C18.8398 16.4051 18.7641 16.2223 18.6293 16.0875C18.4945 15.9527 18.3117 15.877 18.1211 15.877C17.9305 15.877 17.7477 15.9527 17.6129 16.0875C17.4781 16.2223 17.4023 16.4051 17.4023 16.5957V17.3145H16.6836C16.493 17.3145 16.3102 17.3902 16.1754 17.525C16.0406 17.6598 15.9648 17.8426 15.9648 18.0332C15.9648 18.2238 16.0406 18.4066 16.1754 18.5414C16.3102 18.6762 16.493 18.752 16.6836 18.752H17.4023V19.4707C17.4023 19.6613 17.4781 19.8441 17.6129 19.9789C17.7477 20.1137 17.9305 20.1895 18.1211 20.1895C18.3117 20.1895 18.4945 20.1137 18.6293 19.9789C18.7641 19.8441 18.8398 19.6613 18.8398 19.4707V18.752H19.5586C19.7492 18.752 19.932 18.6762 20.0668 18.5414C20.2016 18.4066 20.2773 18.2238 20.2773 18.0332C20.2773 17.8426 20.2016 17.6598 20.0668 17.525C19.932 17.3902 19.7492 17.3145 19.5586 17.3145Z" fill="#E49F4E"/>
<path d="M19.4062 17.1641H18.6875V16.4453C18.6875 16.2547 18.6118 16.0719 18.477 15.9371C18.3422 15.8023 18.1594 15.7266 17.9688 15.7266C17.7781 15.7266 17.5953 15.8023 17.4605 15.9371C17.3257 16.0719 17.25 16.2547 17.25 16.4453V17.1641H16.5312C16.3406 17.1641 16.1578 17.2398 16.023 17.3746C15.8882 17.5094 15.8125 17.6922 15.8125 17.8828C15.8125 18.0734 15.8882 18.2563 16.023 18.391C16.1578 18.5258 16.3406 18.6016 16.5312 18.6016H17.25V19.3203C17.25 19.5109 17.3257 19.6938 17.4605 19.8285C17.5953 19.9633 17.7781 20.0391 17.9688 20.0391C18.1594 20.0391 18.3422 19.9633 18.477 19.8285C18.6118 19.6938 18.6875 19.5109 18.6875 19.3203V18.6016H19.4062C19.5969 18.6016 19.7797 18.5258 19.9145 18.391C20.0493 18.2563 20.125 18.0734 20.125 17.8828C20.125 17.6922 20.0493 17.5094 19.9145 17.3746C19.7797 17.2398 19.5969 17.1641 19.4062 17.1641Z" fill="#EEF5FD"/>
<path d="M15.9634 18.0338C15.9634 17.8431 16.0392 17.6603 16.174 17.5255C16.3087 17.3907 16.4916 17.315 16.6822 17.315H17.4009V16.5963C17.4009 16.4056 17.4767 16.2228 17.6115 16.088C17.7462 15.9532 17.9291 15.8775 18.1197 15.8775C18.2711 15.8826 18.417 15.9355 18.5366 16.0284C18.4719 15.9375 18.3869 15.8629 18.2883 15.8105C18.1897 15.7581 18.0803 15.7293 17.9688 15.7266C17.7781 15.7266 17.5953 15.8023 17.4605 15.9371C17.3257 16.0719 17.25 16.2547 17.25 16.4453V17.1641H16.5312C16.3406 17.1641 16.1578 17.2398 16.023 17.3746C15.8882 17.5094 15.8125 17.6922 15.8125 17.8828C15.8153 17.9944 15.844 18.1038 15.8964 18.2024C15.9488 18.3009 16.0234 18.3859 16.1144 18.4506C16.0214 18.331 15.9686 18.1851 15.9634 18.0338Z" fill="#D7E2F2"/>
</g>
<defs>
<clipPath id="clip0_901_5019">
<rect width="23" height="23" fill="white"/>
</clipPath>
</defs>
</svg>
