<svg width="24" height="24" viewBox="0 0 24 24" fill="none" xmlns="http://www.w3.org/2000/svg">
<path d="M12 19.6364C12.2373 19.6364 12.4693 19.5724 12.6667 19.4525C12.864 19.3326 13.0178 19.1623 13.1087 18.9629C13.1995 18.7636 13.2232 18.5442 13.1769 18.3326C13.1306 18.121 13.0164 17.9266 12.8485 17.7741C12.6807 17.6215 12.4669 17.5176 12.2341 17.4755C12.0013 17.4334 11.7601 17.455 11.5408 17.5376C11.3215 17.6202 11.1341 17.76 11.0022 17.9394C10.8704 18.1188 10.8 18.3297 10.8 18.5455C10.8 18.8348 10.9264 19.1123 11.1515 19.3168C11.3765 19.5214 11.6817 19.6364 12 19.6364ZM18 19.6364C18.2373 19.6364 18.4693 19.5724 18.6667 19.4525C18.864 19.3326 19.0178 19.1623 19.1087 18.9629C19.1995 18.7636 19.2232 18.5442 19.1769 18.3326C19.1306 18.121 19.0164 17.9266 18.8485 17.7741C18.6807 17.6215 18.4669 17.5176 18.2341 17.4755C18.0013 17.4334 17.7601 17.455 17.5408 17.5376C17.3215 17.6202 17.1341 17.76 17.0022 17.9394C16.8704 18.1188 16.8 18.3297 16.8 18.5455C16.8 18.8348 16.9264 19.1123 17.1515 19.3168C17.3765 19.5214 17.6817 19.6364 18 19.6364ZM18 15.2727C18.2373 15.2727 18.4693 15.2087 18.6667 15.0889C18.864 14.969 19.0178 14.7986 19.1087 14.5993C19.1995 14.4 19.2232 14.1806 19.1769 13.969C19.1306 13.7574 19.0164 13.563 18.8485 13.4104C18.6807 13.2579 18.4669 13.154 18.2341 13.1119C18.0013 13.0698 17.7601 13.0914 17.5408 13.1739C17.3215 13.2565 17.1341 13.3963 17.0022 13.5757C16.8704 13.7551 16.8 13.9661 16.8 14.1818C16.8 14.4711 16.9264 14.7486 17.1515 14.9532C17.3765 15.1578 17.6817 15.2727 18 15.2727ZM12 15.2727C12.2373 15.2727 12.4693 15.2087 12.6667 15.0889C12.864 14.969 13.0178 14.7986 13.1087 14.5993C13.1995 14.4 13.2232 14.1806 13.1769 13.969C13.1306 13.7574 13.0164 13.563 12.8485 13.4104C12.6807 13.2579 12.4669 13.154 12.2341 13.1119C12.0013 13.0698 11.7601 13.0914 11.5408 13.1739C11.3215 13.2565 11.1341 13.3963 11.0022 13.5757C10.8704 13.7551 10.8 13.9661 10.8 14.1818C10.8 14.4711 10.9264 14.7486 11.1515 14.9532C11.3765 15.1578 11.6817 15.2727 12 15.2727ZM20.4 2.18182H19.2V1.09091C19.2 0.801582 19.0736 0.524105 18.8485 0.31952C18.6235 0.114935 18.3183 0 18 0C17.6817 0 17.3765 0.114935 17.1515 0.31952C16.9264 0.524105 16.8 0.801582 16.8 1.09091V2.18182H7.2V1.09091C7.2 0.801582 7.07357 0.524105 6.84853 0.31952C6.62348 0.114935 6.31826 0 6 0C5.68174 0 5.37652 0.114935 5.15147 0.31952C4.92643 0.524105 4.8 0.801582 4.8 1.09091V2.18182H3.6C2.64522 2.18182 1.72955 2.52662 1.05442 3.14038C0.379285 3.75413 0 4.58656 0 5.45455V20.7273C0 21.5953 0.379285 22.4277 1.05442 23.0414C1.72955 23.6552 2.64522 24 3.6 24H20.4C21.3548 24 22.2705 23.6552 22.9456 23.0414C23.6207 22.4277 24 21.5953 24 20.7273V5.45455C24 4.58656 23.6207 3.75413 22.9456 3.14038C22.2705 2.52662 21.3548 2.18182 20.4 2.18182ZM21.6 20.7273C21.6 21.0166 21.4736 21.2941 21.2485 21.4987C21.0235 21.7032 20.7183 21.8182 20.4 21.8182H3.6C3.28174 21.8182 2.97652 21.7032 2.75147 21.4987C2.52643 21.2941 2.4 21.0166 2.4 20.7273V10.9091H21.6V20.7273ZM21.6 8.72727H2.4V5.45455C2.4 5.16522 2.52643 4.88774 2.75147 4.68316C2.97652 4.47857 3.28174 4.36364 3.6 4.36364H4.8V5.45455C4.8 5.74387 4.92643 6.02135 5.15147 6.22593C5.37652 6.43052 5.68174 6.54545 6 6.54545C6.31826 6.54545 6.62348 6.43052 6.84853 6.22593C7.07357 6.02135 7.2 5.74387 7.2 5.45455V4.36364H16.8V5.45455C16.8 5.74387 16.9264 6.02135 17.1515 6.22593C17.3765 6.43052 17.6817 6.54545 18 6.54545C18.3183 6.54545 18.6235 6.43052 18.8485 6.22593C19.0736 6.02135 19.2 5.74387 19.2 5.45455V4.36364H20.4C20.7183 4.36364 21.0235 4.47857 21.2485 4.68316C21.4736 4.88774 21.6 5.16522 21.6 5.45455V8.72727ZM6 15.2727C6.23734 15.2727 6.46935 15.2087 6.66668 15.0889C6.86402 14.969 7.01783 14.7986 7.10866 14.5993C7.19948 14.4 7.22324 14.1806 7.17694 13.969C7.13064 13.7574 7.01635 13.563 6.84853 13.4104C6.68071 13.2579 6.46689 13.154 6.23411 13.1119C6.00133 13.0698 5.76005 13.0914 5.54078 13.1739C5.32151 13.2565 5.13409 13.3963 5.00224 13.5757C4.87038 13.7551 4.8 13.9661 4.8 14.1818C4.8 14.4711 4.92643 14.7486 5.15147 14.9532C5.37652 15.1578 5.68174 15.2727 6 15.2727ZM6 19.6364C6.23734 19.6364 6.46935 19.5724 6.66668 19.4525C6.86402 19.3326 7.01783 19.1623 7.10866 18.9629C7.19948 18.7636 7.22324 18.5442 7.17694 18.3326C7.13064 18.121 7.01635 17.9266 6.84853 17.7741C6.68071 17.6215 6.46689 17.5176 6.23411 17.4755C6.00133 17.4334 5.76005 17.455 5.54078 17.5376C5.32151 17.6202 5.13409 17.76 5.00224 17.9394C4.87038 18.1188 4.8 18.3297 4.8 18.5455C4.8 18.8348 4.92643 19.1123 5.15147 19.3168C5.37652 19.5214 5.68174 19.6364 6 19.6364Z" fill="#BFBFBF"/>
</svg>
