<svg width="11" height="13" viewBox="0 0 11 13" fill="none" xmlns="http://www.w3.org/2000/svg">
<path d="M3.06665 4.14749L3.06553 4.14805L3.06385 4.14918L3.06665 4.14749ZM8.64895 4.04262C8.60994 4.00498 8.56665 3.97204 8.51996 3.94448C8.45388 3.90557 8.38051 3.88063 8.3044 3.8712C8.22829 3.86177 8.15105 3.86805 8.07747 3.88965C8.00388 3.91126 7.93551 3.94772 7.87658 3.9968C7.81764 4.04587 7.7694 4.10651 7.73483 4.17497C7.54168 4.55572 7.27525 4.89457 6.95082 5.17209C7.00056 4.89256 7.02571 4.6092 7.02597 4.32527C7.02704 3.4617 6.79925 2.61327 6.3658 1.86636C5.93235 1.11945 5.30872 0.500735 4.55841 0.0732118C4.47572 0.0262321 4.38245 0.00104976 4.28736 3.21179e-05C4.19227 -0.000985527 4.09848 0.0221949 4.01481 0.0673944C3.93114 0.112594 3.86034 0.178328 3.80906 0.258417C3.75778 0.338505 3.72771 0.430318 3.72168 0.525224C3.69028 1.05693 3.55127 1.57672 3.31307 2.05312C3.07487 2.52952 2.74244 2.9526 2.33592 3.29674L2.20693 3.40162C1.78162 3.68777 1.40517 4.04055 1.09204 4.4464C0.605415 5.05943 0.26832 5.77742 0.107495 6.54341C-0.05333 7.3094 -0.0334612 8.10233 0.165526 8.85931C0.364512 9.61629 0.737143 10.3165 1.25386 10.9044C1.77058 11.4923 2.41718 11.9517 3.14236 12.2461C3.2275 12.2808 3.31986 12.294 3.4113 12.2846C3.50274 12.2751 3.59046 12.2434 3.66674 12.1921C3.74302 12.1408 3.80552 12.0715 3.84874 11.9904C3.89196 11.9093 3.91458 11.8188 3.9146 11.7268C3.91413 11.6674 3.90468 11.6084 3.88656 11.5519C3.76108 11.0802 3.72494 10.5893 3.78 10.1044C4.31079 11.1052 5.1627 11.8985 6.19877 12.3566C6.32518 12.4131 6.46806 12.4207 6.59975 12.3779C7.41824 12.1137 8.15558 11.6446 8.74171 11.0152C9.32785 10.3857 9.74332 9.61691 9.94865 8.7817C10.154 7.94649 10.1424 7.07265 9.91488 6.2432C9.6874 5.41375 9.25163 4.65623 8.64895 4.04262ZM6.45899 11.2384C5.97013 10.9907 5.53887 10.6428 5.19326 10.2175C4.84764 9.79219 4.59542 9.29889 4.45297 8.76968C4.40942 8.59147 4.37572 8.41099 4.35203 8.22906C4.33607 8.11322 4.2843 8.00526 4.20395 7.92029C4.12361 7.83532 4.01871 7.77759 3.90394 7.75518C3.86865 7.74833 3.83278 7.74495 3.79683 7.74509C3.69829 7.74499 3.60147 7.77086 3.51611 7.82008C3.43075 7.86931 3.35987 7.94016 3.3106 8.02549C2.84538 8.82815 2.61149 9.74395 2.63483 10.6714C2.22553 10.3532 1.88344 9.95702 1.62841 9.50568C1.37338 9.05435 1.21046 8.55688 1.14912 8.04211C1.08777 7.52735 1.12921 7.00553 1.27104 6.5069C1.41286 6.00827 1.65225 5.54275 1.97532 5.13732C2.22063 4.81869 2.51655 4.54247 2.8513 4.31966C2.86595 4.31027 2.88 4.29996 2.89336 4.28882C2.89336 4.28882 3.05936 4.15142 3.06497 4.14861C3.86424 3.47286 4.43276 2.56459 4.69132 1.55038C5.30228 2.11532 5.70961 2.86619 5.85006 3.68638C5.99051 4.50656 5.85622 5.35018 5.46804 6.08621C5.41667 6.18445 5.39557 6.29572 5.4074 6.40595C5.41923 6.51617 5.46347 6.62042 5.53453 6.70552C5.60558 6.79062 5.70026 6.85275 5.80661 6.88406C5.91296 6.91537 6.02621 6.91446 6.13204 6.88144C6.99105 6.61204 7.74691 6.08595 8.29788 5.37398C8.62915 5.86314 8.84575 6.42076 8.93152 7.00527C9.0173 7.58978 8.97005 8.18612 8.79328 8.74983C8.61652 9.31354 8.31481 9.83008 7.91064 10.261C7.50646 10.6918 7.01025 11.0259 6.45899 11.2384Z" fill="#E38228"/>
</svg>
