<svg width="20" height="20" viewBox="0 0 20 20" fill="none" xmlns="http://www.w3.org/2000/svg">
<path d="M15.926 11.2209C15.7369 11.1983 15.5464 11.1144 15.3624 11.0487C14.9896 10.9184 14.6267 10.7612 14.2765 10.5784C13.8952 10.3856 13.4559 10.3405 13.0433 10.452C12.6308 10.5635 12.274 10.8237 12.0417 11.1824L11.8062 11.5465C11.0248 10.9804 10.3248 10.3097 9.72582 9.55318C9.13238 8.79232 8.64617 7.9536 8.28082 7.06051L8.67071 6.86312C9.0742 6.72222 9.41133 6.43707 9.61721 6.06254C9.8231 5.68802 9.88319 5.25058 9.78594 4.83441C9.69353 4.4505 9.62664 4.06089 9.58573 3.66814C9.56542 3.47388 9.55475 3.27205 9.55267 3.07125C9.52089 2.45326 9.2695 1.86691 8.84378 1.41781C8.41806 0.968716 7.84597 0.686376 7.23056 0.621639L4.65178 0.312408C4.28174 0.264506 3.90573 0.296898 3.54933 0.407378C3.19293 0.517858 2.86452 0.703832 2.58646 0.952639C2.3084 1.20145 2.08721 1.50725 1.93795 1.84922C1.7887 2.19119 1.71487 2.56131 1.72151 2.93438C1.74762 6.59045 2.99104 10.1336 5.25537 13.0042C7.5197 15.8748 10.6759 17.9092 14.2253 18.7861L14.552 18.8253C15.1857 18.9022 15.8256 18.743 16.3495 18.3781C16.6506 18.1675 16.9036 17.8954 17.0917 17.5798C17.2799 17.2641 17.3989 16.9122 17.441 16.5471L17.7502 13.9683C17.8113 13.37 17.6628 12.769 17.3301 12.2679C16.9974 11.7669 16.5011 11.3968 15.926 11.2209ZM15.7373 16.43C15.7225 16.552 15.6819 16.6695 15.6182 16.7746C15.5545 16.8798 15.4691 16.9701 15.3677 17.0397C15.2617 17.1111 15.142 17.1596 15.0162 17.182C14.8904 17.2045 14.7612 17.2004 14.6371 17.17C11.4673 16.3712 8.65371 14.5399 6.64002 11.9649C4.62634 9.38994 3.5272 6.21786 3.51598 2.94902C3.5174 2.82146 3.54466 2.69552 3.59613 2.5788C3.64759 2.46208 3.72219 2.357 3.8154 2.26992C3.90695 2.18789 4.01492 2.12629 4.13212 2.08923C4.24932 2.05217 4.37307 2.04049 4.49514 2.05497L7.07392 2.3642C7.27434 2.38372 7.4617 2.4725 7.60373 2.61526C7.74576 2.75802 7.83358 2.94583 7.85208 3.14635C7.85829 3.38543 7.87343 3.62267 7.89752 3.85808C7.94249 4.32312 8.02124 4.78426 8.13317 5.23786L6.86274 5.65229C6.75418 5.68716 6.65358 5.74313 6.56672 5.81699C6.47985 5.89085 6.40843 5.98114 6.35655 6.08267C6.30468 6.18421 6.27337 6.29499 6.26443 6.40866C6.25549 6.52233 6.26909 6.63664 6.30444 6.74504C7.22381 9.5433 9.09848 11.9288 11.6 13.4837C11.799 13.5948 12.0337 13.6229 12.2533 13.5621C12.3651 13.5366 12.4708 13.4891 12.5641 13.4225C12.6574 13.3558 12.7365 13.2713 12.7969 13.1738L13.4742 12.0343C13.8995 12.2465 14.3372 12.4329 14.7849 12.5926C15.0079 12.6716 15.2349 12.7425 15.4657 12.805C15.6562 12.8704 15.8179 13.0001 15.923 13.1719C16.0282 13.3436 16.0701 13.5467 16.0417 13.746L15.7373 16.43Z" fill="white"/>
</svg>
