<svg width="11" height="12" viewBox="0 0 11 12" fill="none" xmlns="http://www.w3.org/2000/svg">
<path d="M6.1476 6.1412L9.0351 3.25828C9.12141 3.17198 9.1699 3.05492 9.1699 2.93286C9.1699 2.81081 9.12141 2.69375 9.0351 2.60745C8.9488 2.52114 8.83174 2.47266 8.70969 2.47266C8.58763 2.47266 8.47058 2.52114 8.38427 2.60745L5.50136 5.49495L2.61844 2.60745C2.53213 2.52114 2.41508 2.47266 2.29302 2.47266C2.17097 2.47266 2.05391 2.52114 1.96761 2.60745C1.8813 2.69375 1.83281 2.81081 1.83281 2.93286C1.83281 3.05492 1.8813 3.17198 1.96761 3.25828L4.85511 6.1412L1.96761 9.02412C1.92465 9.06672 1.89055 9.11742 1.86728 9.17327C1.84401 9.22912 1.83203 9.28903 1.83203 9.34953C1.83203 9.41004 1.84401 9.46994 1.86728 9.5258C1.89055 9.58165 1.92465 9.63234 1.96761 9.67495C2.01021 9.71791 2.06091 9.752 2.11676 9.77527C2.17261 9.79854 2.23252 9.81052 2.29302 9.81052C2.35353 9.81052 2.41343 9.79854 2.46929 9.77527C2.52514 9.752 2.57583 9.71791 2.61844 9.67495L5.50136 6.78745L8.38427 9.67495C8.42688 9.71791 8.47757 9.752 8.53342 9.77527C8.58928 9.79854 8.64918 9.81052 8.70969 9.81052C8.77019 9.81052 8.8301 9.79854 8.88595 9.77527C8.9418 9.752 8.9925 9.71791 9.0351 9.67495C9.07806 9.63234 9.11216 9.58165 9.13543 9.5258C9.1587 9.46994 9.17068 9.41004 9.17068 9.34953C9.17068 9.28903 9.1587 9.22912 9.13543 9.17327C9.11216 9.11742 9.07806 9.06672 9.0351 9.02412L6.1476 6.1412Z" fill="#EB0067" stroke="#EB0067" stroke-width="1.375"/>
</svg>
