<svg width="21" height="21" viewBox="0 0 21 21" fill="none" xmlns="http://www.w3.org/2000/svg">
<path d="M8.75802 19.3513C6.42505 18.8972 4.41344 17.5337 3.09848 15.6675H6.39224C6.95516 17.3286 7.78205 18.6364 8.75802 19.3513ZM5.60082 10.8891C5.63179 12.3042 5.82661 13.6577 6.15002 14.8677H2.59788C1.93876 13.6782 1.53968 12.3247 1.47795 10.8891H5.60082ZM10.09 10.8891V14.8677H7.06754C6.74864 13.6782 6.55423 12.3247 6.52367 10.8891H10.09ZM7.31304 15.6675H10.09V19.0641C8.96207 18.825 7.96416 17.5542 7.31304 15.6675ZM2.60403 6.11082H6.14799C5.82376 7.30027 5.62935 8.65379 5.60022 10.1098H1.47754C1.53824 8.65379 1.93979 7.30027 2.60403 6.11082ZM10.09 6.11082V10.1098H6.52308C6.55179 8.65379 6.74579 7.27977 7.06551 6.11082H10.09ZM6.38978 5.31102H3.10627C4.41508 3.4448 6.41028 2.10462 8.72418 1.64504C7.76154 2.36589 6.94636 3.64988 6.38978 5.31102ZM10.09 1.87138V5.31102H7.31037C7.96149 3.40379 8.96207 2.11092 10.09 1.87138ZM10.8898 15.6675H13.6631C13.0173 17.5337 12.0177 18.8039 10.8898 19.0582V15.6675ZM14.4524 10.8891C14.4218 12.3247 14.2274 13.6782 13.9085 14.8677H10.8898V10.8891H14.4524ZM13.9106 6.11082C14.2303 7.27977 14.4243 8.65379 14.453 10.1098H10.8898V6.11082H13.9106ZM13.6657 5.31102H10.8898V1.87733C12.0382 2.13204 13.0197 3.4243 13.6657 5.31102ZM17.8788 5.31102H14.5863C14.0291 3.64988 13.2127 2.36322 12.2488 1.64258C14.5679 2.0999 16.5678 3.4448 17.8788 5.31102ZM19.5076 10.1098H15.3759C15.3467 8.65379 15.1523 7.30027 14.8281 6.11082H18.3811C19.0453 7.30027 19.4469 8.65379 19.5076 10.1098ZM14.5839 15.6675H17.8866C16.5692 17.5337 14.5529 18.902 12.2146 19.3537C13.192 18.6395 14.0203 17.3286 14.5839 15.6675ZM19.5072 10.8891C19.4454 12.3247 19.0464 13.6782 18.3873 14.8677H14.8261C15.1495 13.6577 15.3443 12.3042 15.3753 10.8891H19.5072Z" fill="white"/>
<path d="M10.0894 10.8888V14.8674H7.06692C6.74803 13.6779 6.55361 12.3244 6.52306 10.8888H10.0894ZM7.31242 15.6672H10.0894V19.0638C8.96146 18.8247 7.96355 17.5539 7.31242 15.6672ZM10.0894 6.11053V10.1096H6.52246C6.55117 8.6535 6.74518 7.27947 7.06489 6.11053H10.0894ZM10.0894 1.87109V5.31073H7.30976C7.96088 3.4035 8.96146 2.11062 10.0894 1.87109ZM10.8892 15.6672H13.6624C13.0167 17.5334 12.0171 18.8036 10.8892 19.0579V15.6672ZM14.4518 10.8888C14.4212 12.3244 14.2268 13.6779 13.9079 14.8674H10.8892V10.8888H14.4518ZM13.91 6.11053C14.2297 7.27947 14.4237 8.6535 14.4524 10.1096H10.8892V6.11053H13.91ZM13.6651 5.31073H10.8892V1.87704C12.0376 2.13175 13.0191 3.42401 13.6651 5.31073Z" fill="white"/>
<path d="M10.0894 1.87109V5.31073H7.30976C7.96088 3.4035 8.96146 2.11062 10.0894 1.87109ZM10.0894 6.11053V10.1096H6.52246C6.55117 8.6535 6.74518 7.27947 7.06489 6.11053H10.0894ZM10.0894 10.8888V14.8674H7.06692C6.74803 13.6779 6.55361 12.3244 6.52306 10.8888H10.0894ZM7.31242 15.6672H10.0894V19.0638C8.96146 18.8247 7.96355 17.5539 7.31242 15.6672ZM10.8892 15.6672H13.6624C13.0167 17.5334 12.0171 18.8036 10.8892 19.0579V15.6672ZM14.4518 10.8888C14.4212 12.3244 14.2268 13.6779 13.9079 14.8674H10.8892V10.8888H14.4518ZM13.6651 5.31073H10.8892V1.87704C12.0376 2.13175 13.0191 3.42401 13.6651 5.31073ZM14.4524 10.1096H10.8892V6.11053H13.91C14.2297 7.27947 14.4237 8.6535 14.4524 10.1096Z" fill="white"/>
</svg>
