<svg width="16" height="15" viewBox="0 0 16 15" fill="none" xmlns="http://www.w3.org/2000/svg">
<path d="M14.1967 2.10261C13.8473 1.75305 13.4324 1.47575 12.9758 1.28657C12.5192 1.09738 12.0299 1 11.5356 1C11.0414 1 10.552 1.09738 10.0954 1.28657C9.63881 1.47575 9.22397 1.75305 8.87457 2.10261L8.14945 2.82773L7.42434 2.10261C6.71858 1.39685 5.76137 1.00037 4.76329 1.00037C3.7652 1.00037 2.808 1.39685 2.10224 2.10261C1.39649 2.80836 1 3.76557 1 4.76365C1 5.76174 1.39649 6.71895 2.10224 7.4247L2.82736 8.14982L8.14945 13.4719L13.4715 8.14982L14.1967 7.4247C14.5462 7.07531 14.8235 6.66046 15.0127 6.20387C15.2019 5.74728 15.2993 5.25789 15.2993 4.76365C15.2993 4.26942 15.2019 3.78003 15.0127 3.32344C14.8235 2.86685 14.5462 2.452 14.1967 2.10261V2.10261Z" fill="white" stroke="white" stroke-width="1.36815" stroke-linecap="round" stroke-linejoin="round"/>
</svg>
