<svg width="28" height="28" viewBox="0 0 28 28" fill="none" xmlns="http://www.w3.org/2000/svg">
<path d="M10.4135 19.8874H25.6474C25.2787 20.853 24.8068 21.7281 24.2033 22.4878H10.2252L10.4135 19.8874ZM26.2256 15.5234H23.8621C25.2751 14.282 26.8433 12.8996 26.992 12.7507C27.2253 12.5115 27.3549 12.1899 27.3528 11.8557C27.3507 11.5216 27.217 11.2017 26.9807 10.9654C26.7444 10.7291 26.4245 10.5955 26.0903 10.5934C25.7561 10.5913 25.4346 10.721 25.1954 10.9543C24.991 11.1587 22.4564 14.0447 21.1594 15.5234H10.7291L10.5832 17.5414H26.2256C26.4932 17.5414 26.7498 17.4351 26.939 17.2459C27.1282 17.0567 27.2346 16.8 27.2346 16.5324C27.2346 16.2648 27.1282 16.0082 26.939 15.819C26.7498 15.6297 26.4932 15.5234 26.2256 15.5234V15.5234ZM11.8701 10.2174C11.8701 10.001 11.7841 9.79345 11.6311 9.64041C11.478 9.48737 11.2705 9.40139 11.054 9.40139H1.45169C1.34396 9.40051 1.23712 9.42097 1.13733 9.46159C1.03755 9.5022 0.946794 9.56217 0.870304 9.63804C0.793813 9.71391 0.733101 9.80417 0.691669 9.90362C0.650237 10.0031 0.628906 10.1097 0.628906 10.2175C0.628906 10.3252 0.650237 10.4319 0.691669 10.5313C0.733101 10.6308 0.793813 10.721 0.870304 10.7969C0.946794 10.8728 1.03755 10.9327 1.13733 10.9734C1.23712 11.014 1.34396 11.0344 1.45169 11.0335H11.0539C11.2704 11.0335 11.4779 10.9476 11.631 10.7945C11.784 10.6415 11.87 10.434 11.87 10.2176L11.8701 10.2174Z" fill="#DCDCDC"/>
<path d="M26.2288 15.1387H24.8804C27.1007 13.185 27.223 13.0626 27.2659 13.0197C27.5733 12.7091 27.7451 12.2895 27.744 11.8525C27.7429 11.4155 27.5688 10.9968 27.2598 10.6878C26.9508 10.3788 26.5321 10.2047 26.0951 10.2036C25.6582 10.2024 25.2385 10.3743 24.9279 10.6816C24.7726 10.837 23.4349 12.3539 22.025 13.9587C21.8256 13.9268 21.6231 13.9182 21.4216 13.9333C21.0752 13.0938 20.1892 12.5147 19.1874 12.5147C19.0008 12.5145 18.8147 12.5345 18.6324 12.5744C18.2898 11.7296 17.4108 11.1515 16.3957 11.1515C15.4099 11.1515 14.5451 11.699 14.1839 12.517C13.1208 12.472 12.1828 13.0713 11.833 13.9553C11.6355 13.9258 11.4352 13.9192 11.2362 13.9354L11.4224 11.361C11.6958 11.275 11.9294 11.0939 12.0809 10.8506C12.2324 10.6072 12.2917 10.3177 12.2482 10.0344C12.2047 9.75107 12.0611 9.4927 11.8436 9.30605C11.626 9.1194 11.3489 9.01681 11.0622 9.01685H1.44984C1.16321 9.01683 0.88603 9.11943 0.668494 9.30608C0.450957 9.49273 0.307437 9.7511 0.263914 10.0344C0.22039 10.3177 0.279741 10.6073 0.43122 10.8506C0.5827 11.094 0.816298 11.275 1.08973 11.361L2.00913 24.0716C2.03752 24.4033 2.18892 24.7123 2.43357 24.938C2.67823 25.1637 2.99845 25.2898 3.33131 25.2914H9.1808C9.4307 25.2902 9.67523 25.2187 9.8865 25.0853C10.0978 24.9518 10.2673 24.7616 10.3757 24.5365C10.7069 24.7916 11.0536 25.0261 11.4137 25.2385C11.4726 25.2732 11.5396 25.2914 11.6079 25.2914H21.4517C21.52 25.2914 21.5871 25.2731 21.6459 25.2385C22.9628 24.4613 24.0869 23.3963 24.934 22.1232C25.7811 20.8501 26.3293 19.4019 26.5375 17.887C26.8711 17.811 27.165 17.6148 27.3631 17.3359C27.5612 17.0569 27.6496 16.7148 27.6114 16.3748C27.5732 16.0348 27.411 15.7208 27.156 15.4927C26.9009 15.2647 26.5707 15.1387 26.2286 15.1387H26.2288ZM25.4692 11.2231C25.6359 11.0574 25.8614 10.9646 26.0964 10.9649C26.3313 10.9653 26.5565 11.0588 26.7227 11.2249C26.8888 11.391 26.9823 11.6163 26.9827 11.8512C26.983 12.0862 26.8902 12.3117 26.7245 12.4784C26.6605 12.5424 26.1818 12.976 23.721 15.1387H22.0079C24.061 12.7995 25.3417 11.3506 25.4692 11.223V11.2231ZM11.9849 14.7734C12.0365 14.7895 12.091 14.7944 12.1447 14.788C12.1983 14.7815 12.25 14.7637 12.2964 14.7358C12.3427 14.7079 12.3826 14.6705 12.4134 14.6261C12.4442 14.5817 12.4653 14.5312 12.4752 14.4781C12.6049 13.784 13.2784 13.2804 14.0764 13.2804C14.1784 13.2805 14.2803 13.2891 14.3809 13.3061C14.4751 13.3219 14.5718 13.3019 14.6521 13.2501C14.7323 13.1982 14.7903 13.1182 14.8145 13.0258C14.9859 12.373 15.6361 11.9171 16.3957 11.9171C17.1975 11.9171 17.8715 12.4237 17.998 13.1216C18.0082 13.1775 18.0306 13.2304 18.0637 13.2765C18.0969 13.3226 18.1398 13.3608 18.1896 13.3883C18.2393 13.4157 18.2945 13.4318 18.3511 13.4353C18.4078 13.4387 18.4646 13.4296 18.5173 13.4084C18.7303 13.3232 18.9578 13.2798 19.1872 13.2804C19.9633 13.2804 20.6335 13.7678 20.7808 14.4394C20.8025 14.5381 20.8623 14.6243 20.9473 14.679C21.0322 14.7338 21.1354 14.7528 21.2342 14.7318C21.278 14.7225 21.3217 14.7154 21.3655 14.7094L20.9889 15.1387H11.1491L11.18 14.7111C11.4496 14.672 11.7245 14.6933 11.9849 14.7734ZM10.778 20.2682H25.0792C24.7938 20.9181 24.4357 21.5336 24.0117 22.1029H10.6453L10.778 20.2682ZM10.8334 19.5026L10.9477 17.9221H25.7585C25.6777 18.4592 25.5496 18.988 25.3757 19.5026H10.8334ZM1.44984 9.78226H11.0622C11.1773 9.78226 11.2877 9.82799 11.3691 9.90941C11.4505 9.99082 11.4963 10.1012 11.4963 10.2164C11.4963 10.3315 11.4505 10.4419 11.3691 10.5233C11.2877 10.6047 11.1773 10.6505 11.0622 10.6505H1.44984C1.33471 10.6505 1.22429 10.6047 1.14288 10.5233C1.06147 10.4419 1.01573 10.3315 1.01573 10.2164C1.01573 10.1012 1.06147 9.99082 1.14288 9.90941C1.22429 9.82799 1.33471 9.78226 1.44984 9.78226ZM9.1808 24.526H3.33131C3.19109 24.5254 3.05614 24.4725 2.95285 24.3777C2.84956 24.2828 2.78535 24.1529 2.77279 24.0132L1.86137 11.4161H10.6507L9.73998 24.0101C9.72798 24.1503 9.66394 24.281 9.56047 24.3765C9.45699 24.4719 9.32156 24.5252 9.1808 24.5258V24.526ZM21.3465 24.526H11.7134C11.2981 24.2749 10.9029 23.992 10.5313 23.6797L10.5899 22.8688H23.3761C22.7809 23.5138 22.0976 24.0717 21.3465 24.5258V24.526ZM26.2288 17.1562H11.0033L11.0938 15.9041H26.2288C26.3115 15.9033 26.3935 15.9189 26.4702 15.95C26.5468 15.9812 26.6165 16.0272 26.6753 16.0854C26.734 16.1436 26.7807 16.2128 26.8125 16.2892C26.8443 16.3655 26.8607 16.4474 26.8607 16.5301C26.8607 16.6128 26.8443 16.6947 26.8125 16.7711C26.7807 16.8474 26.734 16.9167 26.6753 16.9749C26.6165 17.0331 26.5468 17.0791 26.4702 17.1102C26.3935 17.1413 26.3115 17.1569 26.2288 17.1562ZM3.56373 6.85708C3.75831 6.6602 3.85183 6.55509 3.85183 6.31939C3.85183 6.08369 3.75831 5.97869 3.56373 5.78176C3.34887 5.56432 3.05459 5.2666 3.05459 4.706C3.05459 4.1454 3.34887 3.84741 3.56373 3.6303C3.75831 3.43342 3.85183 3.32837 3.85183 3.09277C3.85183 2.99125 3.89216 2.89388 3.96395 2.82208C4.03574 2.75029 4.13311 2.70996 4.23464 2.70996C4.33617 2.70996 4.43354 2.75029 4.50533 2.82208C4.57712 2.89388 4.61745 2.99125 4.61745 3.09277C4.61745 3.65332 4.32318 3.95104 4.10831 4.16842C3.91373 4.3653 3.82022 4.47035 3.82022 4.706C3.82022 4.94165 3.91373 5.04676 4.10831 5.24363C4.32318 5.46107 4.61745 5.75884 4.61745 6.31939C4.61745 6.87994 4.32318 7.17798 4.10831 7.3952C3.91373 7.59208 3.82022 7.69719 3.82022 7.93284C3.82022 8.03436 3.77989 8.13173 3.7081 8.20353C3.6363 8.27532 3.53893 8.31565 3.43741 8.31565C3.33588 8.31565 3.23851 8.27532 3.16672 8.20353C3.09493 8.13173 3.05459 8.03436 3.05459 7.93284C3.05459 7.37223 3.34887 7.07452 3.56373 6.85708ZM5.98377 6.85708C6.17829 6.6602 6.2718 6.55509 6.2718 6.31939C6.2718 6.08369 6.17829 5.97869 5.98377 5.78176C5.7689 5.56432 5.47462 5.2666 5.47462 4.706C5.47462 4.1454 5.7689 3.84741 5.98377 3.6303C6.17829 3.43342 6.2718 3.32837 6.2718 3.09277C6.2718 2.99125 6.31214 2.89388 6.38393 2.82208C6.45572 2.75029 6.55309 2.70996 6.65462 2.70996C6.75614 2.70996 6.85351 2.75029 6.92531 2.82208C6.9971 2.89388 7.03743 2.99125 7.03743 3.09277C7.03743 3.65332 6.74316 3.95104 6.52829 4.16842C6.33377 4.3653 6.24025 4.47035 6.24025 4.706C6.24025 4.94165 6.33377 5.04676 6.52834 5.24363C6.74316 5.46107 7.03743 5.75884 7.03743 6.31939C7.03743 6.87994 6.74316 7.17798 6.52834 7.3952C6.33377 7.59208 6.24025 7.69719 6.24025 7.93284C6.24025 8.03436 6.19992 8.13173 6.12813 8.20353C6.05634 8.27532 5.95897 8.31565 5.85744 8.31565C5.75591 8.31565 5.65854 8.27532 5.58675 8.20353C5.51496 8.13173 5.47462 8.03436 5.47462 7.93284C5.47462 7.37223 5.7689 7.07452 5.98377 6.85708ZM8.40374 6.85708C8.59832 6.6602 8.69184 6.55509 8.69184 6.31939C8.69184 6.08369 8.59832 5.97869 8.40374 5.78176C8.18887 5.56432 7.8946 5.2666 7.8946 4.706C7.8946 4.1454 8.18887 3.84741 8.4038 3.6303C8.59832 3.43342 8.69184 3.32837 8.69184 3.09277C8.69184 2.99125 8.73217 2.89388 8.80396 2.82208C8.87575 2.75029 8.97312 2.70996 9.07465 2.70996C9.17618 2.70996 9.27355 2.75029 9.34534 2.82208C9.41713 2.89388 9.45746 2.99125 9.45746 3.09277C9.45746 3.65332 9.16319 3.95104 8.94832 4.16842C8.75374 4.3653 8.66023 4.47035 8.66023 4.706C8.66023 4.94165 8.75374 5.04676 8.94832 5.24363C9.16319 5.46107 9.45746 5.75884 9.45746 6.31939C9.45746 6.87994 9.16319 7.17798 8.94832 7.3952C8.75374 7.59208 8.66023 7.69719 8.66023 7.93284C8.66023 8.03436 8.61989 8.13173 8.5481 8.20353C8.47631 8.27532 8.37894 8.31565 8.27741 8.31565C8.17589 8.31565 8.07852 8.27532 8.00672 8.20353C7.93493 8.13173 7.8946 8.03436 7.8946 7.93284C7.8946 7.37223 8.18887 7.07452 8.40374 6.85708Z" fill="#EB0067"/>
</svg>
