<svg width="24" height="24" viewBox="0 0 24 24" fill="none" xmlns="http://www.w3.org/2000/svg">
<path d="M6.37167 3.91797V3.91897C6.32209 3.91874 6.27357 3.93328 6.2323 3.96074C6.19102 3.98821 6.15886 4.02734 6.13992 4.07316C6.12099 4.11897 6.11613 4.16939 6.12597 4.21798C6.1358 4.26657 6.1599 4.31113 6.19517 4.34597L7.96367 6.11347L9.02367 7.17397C9.04688 7.19715 9.0653 7.22467 9.07787 7.25497C9.09044 7.28526 9.09693 7.31774 9.09695 7.35054C9.09697 7.38335 9.09054 7.41583 9.07801 7.44615C9.06547 7.47646 9.04709 7.50401 9.02392 7.52722C9.00074 7.55043 8.97321 7.56885 8.94292 7.58142C8.91262 7.594 8.88014 7.60048 8.84734 7.60051C8.81454 7.60053 8.78205 7.59409 8.75174 7.58156C8.72143 7.56903 8.69388 7.55065 8.67067 7.52747L7.61017 6.46747L5.84167 4.69947C5.81845 4.67626 5.7909 4.65785 5.76057 4.64529C5.73025 4.63272 5.69774 4.62626 5.66492 4.62626C5.63209 4.62626 5.59959 4.63272 5.56926 4.64529C5.53893 4.65785 5.51138 4.67626 5.48817 4.69947C5.46495 4.72268 5.44654 4.75024 5.43398 4.78056C5.42142 4.81089 5.41495 4.84339 5.41495 4.87622C5.41495 4.90905 5.42142 4.94155 5.43398 4.97188C5.44654 5.0022 5.46495 5.02976 5.48817 5.05297L7.25667 6.82047L8.31667 7.88097C8.36354 7.92778 8.3899 7.9913 8.38995 8.05754C8.39 8.12379 8.36373 8.18734 8.31692 8.23422C8.27011 8.2811 8.20659 8.30746 8.14034 8.30751C8.0741 8.30755 8.01054 8.28128 7.96367 8.23447L6.90317 7.17447L5.13467 5.40647C5.11145 5.38326 5.0839 5.36485 5.05357 5.35229C5.02325 5.33972 4.99074 5.33326 4.95792 5.33326C4.92509 5.33326 4.89259 5.33972 4.86226 5.35229C4.83193 5.36485 4.80438 5.38326 4.78117 5.40647C4.75795 5.42968 4.73954 5.45724 4.72698 5.48756C4.71442 5.51789 4.70795 5.55039 4.70795 5.58322C4.70795 5.61605 4.71442 5.64855 4.72698 5.67888C4.73954 5.7092 4.75795 5.73676 4.78117 5.75997L6.54867 7.52747H6.55167L7.61117 8.58747C7.63434 8.61068 7.65272 8.63823 7.66526 8.66854C7.67779 8.69886 7.68422 8.73134 7.6842 8.76415C7.68418 8.79695 7.67769 8.82943 7.66512 8.85972C7.65255 8.89002 7.63413 8.91754 7.61092 8.94072C7.5877 8.9639 7.56016 8.98228 7.52984 8.99481C7.49953 9.00734 7.46704 9.01378 7.43424 9.01376C7.40144 9.01373 7.36896 9.00725 7.33866 8.99467C7.30837 8.9821 7.28084 8.96368 7.25767 8.94047L6.19617 7.88047L4.60517 6.28947L4.42867 6.11247C4.40545 6.08926 4.3779 6.07085 4.34757 6.05828C4.31725 6.04572 4.28474 6.03926 4.25192 6.03926C4.21909 6.03926 4.18659 6.04572 4.15626 6.05828C4.12593 6.07085 4.09838 6.08926 4.07517 6.11247C4.05195 6.13568 4.03354 6.16324 4.02098 6.19356C4.00842 6.22389 4.00195 6.25639 4.00195 6.28922C4.00195 6.32205 4.00842 6.35455 4.02098 6.38488C4.03354 6.4152 4.05195 6.44276 4.07517 6.46597L4.25167 6.64297L5.84267 8.23347L6.90267 9.29497L7.43417 9.82547C7.53866 9.92974 7.67189 10.0005 7.8168 10.0286C7.96172 10.0568 8.11173 10.041 8.24767 9.98347L9.01367 9.66047L18.6287 19.85C18.6729 19.8968 18.726 19.9343 18.785 19.9602C18.8439 19.9861 18.9075 19.9999 18.9719 20.0008C19.0363 20.0017 19.1002 19.9897 19.1599 19.9654C19.2195 19.9411 19.2737 19.9051 19.3192 19.8595L19.9217 19.258C19.97 19.2097 20.0081 19.1522 20.0338 19.0889C20.0595 19.0256 20.0723 18.9578 20.0713 18.8895C20.0703 18.8212 20.0557 18.7538 20.0281 18.6912C20.0006 18.6287 19.9609 18.5723 19.9112 18.5255L9.74417 8.92847L10.0672 8.16397C10.1248 8.02782 10.1405 7.87754 10.1122 7.73241C10.0839 7.58729 10.0128 7.45394 9.90817 7.34947L8.31717 5.75847L6.54867 3.99097C6.52544 3.96772 6.49784 3.94931 6.46746 3.93678C6.43708 3.92425 6.40453 3.91786 6.37167 3.91797ZM18.6942 4.75497C17.0477 4.76097 15.6967 5.52797 14.4042 6.82047L11.4092 9.81547L13.2282 11.5315L19.8832 4.87497C19.4919 4.79517 19.0935 4.75497 18.6942 4.75497ZM10.5292 11.9975L4.34367 17.6215C4.29585 17.6648 4.25734 17.7173 4.23046 17.776C4.20358 17.8346 4.1889 17.8981 4.18731 17.9626C4.18572 18.0271 4.19726 18.0912 4.22121 18.1511C4.24517 18.211 4.28104 18.2654 4.32667 18.311L5.03467 19.018C5.12843 19.1117 5.25558 19.1644 5.38817 19.1644C5.52075 19.1644 5.6479 19.1117 5.74167 19.018L11.6142 13.145L10.5292 11.997V11.9975Z" fill="white"/>
</svg>
