<svg width="21" height="21" viewBox="0 0 21 21" fill="none" xmlns="http://www.w3.org/2000/svg">
<path d="M10.4998 20.125C10.9639 20.125 11.4091 19.9406 11.7373 19.6124C12.0654 19.2842 12.2498 18.8391 12.2498 18.375H8.74981C8.74981 18.8391 8.93419 19.2842 9.26238 19.6124C9.59057 19.9406 10.0357 20.125 10.4998 20.125ZM3.49981 16.625H17.4998C17.6728 16.625 17.842 16.5736 17.9858 16.4775C18.1297 16.3813 18.2418 16.2447 18.308 16.0848C18.3742 15.925 18.3916 15.7491 18.3578 15.5793C18.3241 15.4096 18.2408 15.2537 18.1184 15.1314L16.6248 13.6378V8.75C16.622 7.27869 16.0901 5.85746 15.1263 4.74582C14.1624 3.63417 12.8309 2.90627 11.3748 2.695V1.75C11.3748 1.51794 11.2826 1.29538 11.1185 1.13128C10.9544 0.967187 10.7319 0.875 10.4998 0.875C10.2677 0.875 10.0452 0.967187 9.8811 1.13128C9.717 1.29538 9.62481 1.51794 9.62481 1.75V2.695C8.16874 2.90627 6.83723 3.63417 5.87337 4.74582C4.90952 5.85746 4.37763 7.27869 4.37481 8.75V13.6378L2.88119 15.1314C2.75886 15.2537 2.67555 15.4096 2.6418 15.5793C2.60806 15.7491 2.62538 15.925 2.6916 16.0848C2.75781 16.2447 2.86993 16.3813 3.01379 16.4775C3.15765 16.5736 3.32678 16.625 3.49981 16.625ZM5.86844 14.6186C6.03254 14.4546 6.12476 14.232 6.12481 14V8.75C6.12481 7.58968 6.58575 6.47688 7.40622 5.65641C8.22669 4.83594 9.33949 4.375 10.4998 4.375C11.6601 4.375 12.7729 4.83594 13.5934 5.65641C14.4139 6.47688 14.8748 7.58968 14.8748 8.75V14C14.8749 14.232 14.9671 14.4546 15.1312 14.6186L15.3876 14.875H5.61206L5.86844 14.6186Z" fill="black"/>
</svg>
