<svg width="26" height="26" viewBox="0 0 26 26" fill="none" xmlns="http://www.w3.org/2000/svg">
<path d="M10.3505 22.5897C10.8914 23.2686 11.6857 23.708 12.5576 23.8106C13.4295 23.9132 14.3071 23.6706 14.9962 23.1364C15.2082 22.9784 15.3989 22.7947 15.5638 22.5897M3.79191 14.9364V14.6991C3.82671 13.9973 4.05166 13.3172 4.44357 12.7291C5.09589 12.0226 5.54244 11.1568 5.73637 10.2226C5.73637 9.50062 5.73637 8.76829 5.79944 8.04627C6.12526 4.57028 9.56223 2.16699 12.9572 2.16699H13.0412C16.4362 2.16699 19.8731 4.57028 20.2095 8.04627C20.2725 8.76829 20.2095 9.50062 20.262 10.2226C20.4586 11.159 20.9047 12.0274 21.5548 12.7394C21.9497 13.3223 22.175 13.9999 22.2065 14.6991V14.9261C22.23 15.869 21.9052 16.7885 21.2921 17.515C20.4819 18.3644 19.3825 18.8929 18.202 19.0003C14.7403 19.3716 11.2476 19.3716 7.78594 19.0003C6.60675 18.8882 5.50892 18.3605 4.69582 17.515C4.09218 16.788 3.77178 15.874 3.79191 14.9364Z" stroke="#384C30" stroke-width="1.625" stroke-linecap="round" stroke-linejoin="round"/>
<ellipse cx="20.5476" cy="4.19371" rx="3.77419" ry="3.35484" fill="#FFB40C"/>
</svg>
