<svg width="16" height="16" viewBox="0 0 16 16" fill="none" xmlns="http://www.w3.org/2000/svg">
<path d="M2.41697 9.99963C3.34012 10.9241 4.56948 11.4791 5.87343 11.56C7.17739 11.6409 8.46593 11.2422 9.4963 10.439L13.0416 13.9843C13.1674 14.1057 13.3358 14.1729 13.5106 14.1714C13.6854 14.1699 13.8526 14.0998 13.9762 13.9762C14.0998 13.8526 14.1699 13.6854 14.1714 13.5106C14.1729 13.3358 14.1057 13.1674 13.9843 13.0416L10.439 9.4963C11.2778 8.41974 11.6744 7.06373 11.5479 5.70481C11.4213 4.34589 10.7812 3.08643 9.75796 2.18327C8.73473 1.28012 7.40552 0.801305 6.04141 0.844482C4.67729 0.88766 3.38103 1.44957 2.41697 2.41563C1.91883 2.91351 1.52367 3.50466 1.25407 4.15531C0.984469 4.80595 0.845703 5.50334 0.845703 6.20763C0.845703 6.91192 0.984469 7.60931 1.25407 8.25995C1.52367 8.9106 1.91883 9.50175 2.41697 9.99963ZM3.35963 3.35963C4.01868 2.7006 4.88585 2.29046 5.81338 2.1991C6.74092 2.10773 7.67144 2.3408 8.44641 2.85858C9.22137 3.37636 9.79284 4.14683 10.0634 5.03871C10.334 5.93059 10.287 6.8887 9.93041 7.7498C9.5738 8.61091 8.92965 9.32173 8.10772 9.76115C7.28579 10.2006 6.33692 10.3414 5.42278 10.1597C4.50864 9.97797 3.6858 9.48491 3.09443 8.76452C2.50307 8.04413 2.17977 7.14099 2.17963 6.20896C2.1778 5.67935 2.28117 5.15464 2.48373 4.66528C2.68629 4.17593 2.98402 3.73168 3.35963 3.3583V3.35963Z" fill="#484848"/>
</svg>
