<svg width="15" height="17" viewBox="0 0 15 17" fill="none" xmlns="http://www.w3.org/2000/svg">
<path d="M12.5 11.7333C11.8667 11.7333 11.3 11.9833 10.8667 12.375L4.925 8.91667C4.96667 8.725 5 8.53333 5 8.33333C5 8.13333 4.96667 7.94167 4.925 7.75L10.8 4.325C11.25 4.74167 11.8417 5 12.5 5C13.8833 5 15 3.88333 15 2.5C15 1.11667 13.8833 0 12.5 0C11.1167 0 10 1.11667 10 2.5C10 2.7 10.0333 2.89167 10.075 3.08333L4.2 6.50833C3.75 6.09167 3.15833 5.83333 2.5 5.83333C1.11667 5.83333 0 6.95 0 8.33333C0 9.71667 1.11667 10.8333 2.5 10.8333C3.15833 10.8333 3.75 10.575 4.2 10.1583L10.1333 13.625C10.0917 13.8 10.0667 13.9833 10.0667 14.1667C10.0667 15.5083 11.1583 16.6 12.5 16.6C13.8417 16.6 14.9333 15.5083 14.9333 14.1667C14.9333 12.825 13.8417 11.7333 12.5 11.7333Z" fill="white"/>
</svg>
