<svg width="37" height="37" viewBox="0 0 37 37" fill="none" xmlns="http://www.w3.org/2000/svg">
<g clip-path="url(#clip0_901_5017)">
<path d="M17.6994 25.7083V24.9394C17.6978 23.8251 17.3038 22.7469 16.5864 21.8943C15.8691 21.0416 14.8742 20.4689 13.7766 20.2768C13.8982 20.0273 13.9612 19.7534 13.9609 19.4759C13.9646 19.2387 13.9211 19.0032 13.8329 18.783C13.7447 18.5628 13.6136 18.3624 13.4472 18.1933C13.2807 18.0243 13.0824 17.8901 12.8636 17.7985C12.6448 17.7068 12.41 17.6597 12.1728 17.6597C11.9356 17.6597 11.7008 17.7068 11.482 17.7985C11.2632 17.8901 11.0648 18.0243 10.8984 18.1933C10.732 18.3624 10.6009 18.5628 10.5127 18.783C10.4245 19.0032 10.3809 19.2387 10.3846 19.4759C10.3844 19.7566 10.4489 20.0336 10.5733 20.2853C9.48585 20.4871 8.50324 21.0628 7.79555 21.9128C7.08785 22.7627 6.69963 23.8333 6.69808 24.9393V25.7024C6.31079 25.7966 5.97128 26.0291 5.74353 26.3562C5.51579 26.6833 5.41551 27.0824 5.46161 27.4783C5.5077 27.8742 5.69698 28.2396 5.99378 28.5056C6.29059 28.7716 6.67443 28.9199 7.073 28.9226H17.2992C17.6955 28.9198 18.0773 28.773 18.3734 28.5096C18.6695 28.2462 18.8598 27.8842 18.9088 27.4909C18.9577 27.0976 18.8621 26.6999 18.6396 26.3719C18.4171 26.044 18.0829 25.8081 17.6994 25.7082V25.7083ZM12.1728 18.7457C12.3183 18.7404 12.4621 18.7788 12.5857 18.8558C12.7093 18.9328 12.807 19.045 12.8664 19.178C12.9257 19.311 12.944 19.4586 12.9188 19.6021C12.8937 19.7455 12.8262 19.8782 12.7251 19.983C12.624 20.0878 12.4939 20.16 12.3515 20.1904C12.2091 20.2207 12.0608 20.2078 11.9258 20.1533C11.7908 20.0988 11.6751 20.0052 11.5936 19.8845C11.5122 19.7638 11.4686 19.6215 11.4686 19.4759C11.4655 19.2857 11.5378 19.1021 11.6698 18.9652C11.8018 18.8284 11.9827 18.7494 12.1728 18.7457ZM7.78207 24.9393C7.78316 23.9717 8.168 23.0441 8.85216 22.36C9.53632 21.6758 10.4639 21.291 11.4315 21.2899H12.966C13.9335 21.291 14.8611 21.6758 15.5453 22.36C16.2295 23.0441 16.6143 23.9717 16.6154 24.9393V25.6579H7.78207V24.9393ZM17.2992 27.8386H7.073C6.92975 27.8353 6.79347 27.7761 6.69332 27.6736C6.59317 27.5711 6.53709 27.4335 6.53709 27.2902C6.53709 27.1469 6.59317 27.0093 6.69332 26.9069C6.79347 26.8044 6.92975 26.7452 7.073 26.7419H17.2992C17.4424 26.7452 17.5787 26.8044 17.6788 26.9069C17.779 27.0093 17.8351 27.1469 17.8351 27.2902C17.8351 27.4335 17.779 27.5711 17.6788 27.6736C17.5787 27.7761 17.4424 27.8353 17.2992 27.8386ZM10.5937 12.4135C10.6441 12.4644 10.7041 12.5047 10.7702 12.5323C10.8362 12.5598 10.9071 12.574 10.9787 12.574C11.0503 12.574 11.1212 12.5598 11.1873 12.5323C11.2534 12.5047 11.3134 12.4644 11.3638 12.4135L14.9593 8.78416C15.0604 8.68204 15.1169 8.54392 15.1162 8.40018C15.1156 8.25643 15.0578 8.11884 14.9557 8.01768C14.8536 7.91651 14.7155 7.86005 14.5717 7.86072C14.428 7.86139 14.2904 7.91914 14.1892 8.02125L10.9787 11.2619L10.1303 10.4054C10.0802 10.3549 10.0207 10.3147 9.95505 10.2871C9.88942 10.2596 9.81901 10.2452 9.74783 10.2449C9.67665 10.2445 9.6061 10.2582 9.54021 10.2852C9.47433 10.3121 9.41439 10.3517 9.36382 10.4018C9.31325 10.4519 9.27304 10.5115 9.2455 10.5771C9.21795 10.6427 9.2036 10.7132 9.20326 10.7843C9.20292 10.8555 9.21661 10.9261 9.24354 10.992C9.27047 11.0578 9.31011 11.1178 9.3602 11.1683L10.5937 12.4135ZM33.2061 22.8678H32.1185C31.9747 22.8678 31.8369 22.9249 31.7352 23.0265C31.6336 23.1282 31.5765 23.266 31.5765 23.4098C31.5765 23.5535 31.6336 23.6914 31.7352 23.793C31.8369 23.8947 31.9747 23.9518 32.1185 23.9518H33.2061C33.3498 23.9518 33.4877 23.8947 33.5893 23.793C33.6909 23.6914 33.748 23.5535 33.748 23.4098C33.748 23.266 33.6909 23.1282 33.5893 23.0265C33.4877 22.9249 33.3498 22.8678 33.2061 22.8678ZM33.2061 18.5319H32.1185C31.9747 18.5319 31.8369 18.589 31.7352 18.6906C31.6336 18.7922 31.5765 18.9301 31.5765 19.0738C31.5765 19.2176 31.6336 19.3554 31.7352 19.4571C31.8369 19.5587 31.9747 19.6158 32.1185 19.6158H33.2061C33.3498 19.6158 33.4877 19.5587 33.5893 19.4571C33.6909 19.3554 33.748 19.2176 33.748 19.0738C33.748 18.9301 33.6909 18.7922 33.5893 18.6906C33.4877 18.589 33.3498 18.5319 33.2061 18.5319ZM33.2061 20.6998H32.1185C31.9747 20.6998 31.8369 20.7569 31.7352 20.8586C31.6336 20.9602 31.5765 21.0981 31.5765 21.2418C31.5765 21.3856 31.6336 21.5234 31.7352 21.6251C31.8369 21.7267 31.9747 21.7838 32.1185 21.7838H33.2061C33.3498 21.7838 33.4877 21.7267 33.5893 21.6251C33.6909 21.5234 33.748 21.3856 33.748 21.2418C33.748 21.0981 33.6909 20.9602 33.5893 20.8586C33.4877 20.7569 33.3498 20.6998 33.2061 20.6998ZM33.2061 15.2799H25.6146C25.4708 15.2799 25.3329 15.337 25.2313 15.4386C25.1297 15.5403 25.0726 15.6781 25.0726 15.8219C25.0726 15.9656 25.1297 16.1035 25.2313 16.2051C25.3329 16.3068 25.4708 16.3639 25.6146 16.3639H33.2061C33.3498 16.3639 33.4877 16.3068 33.5893 16.2051C33.6909 16.1035 33.748 15.9656 33.748 15.8219C33.748 15.6781 33.6909 15.5403 33.5893 15.4386C33.4877 15.337 33.3498 15.2799 33.2061 15.2799ZM35.374 12.0209H24.3456V10.3132C24.3452 9.97794 24.2118 9.6565 23.9747 9.41941C23.7377 9.18233 23.4162 9.04896 23.0809 9.04858H17.9241C17.3907 6.33696 15.015 4.28613 12.1728 4.28613C9.33058 4.28613 6.95484 6.33703 6.42138 9.04873H1.26465C0.92936 9.04911 0.607914 9.18247 0.370829 9.41955C0.133745 9.65664 0.000382531 9.97809 0 10.3134L0 12.6584C0.000532424 12.9633 0.111149 13.2578 0.311504 13.4877C0.511859 13.7176 0.78848 13.8674 1.09049 13.9096V30.0029C1.09129 30.7213 1.37706 31.4102 1.8851 31.9182C2.39315 32.4263 3.08197 32.712 3.80045 32.7128H20.6492C21.2254 32.7115 21.7864 32.5273 22.2513 32.1867C22.4033 32.3523 22.588 32.4844 22.7937 32.5748C22.9994 32.6652 23.2217 32.7119 23.4464 32.7118L32.9425 32.7127C32.9448 32.7127 32.9471 32.713 32.9495 32.713C33.0215 32.7131 33.0928 32.6988 33.1592 32.6709C33.2256 32.643 33.2858 32.6021 33.3361 32.5506L36.8412 29.0459L36.8446 29.0422C36.8558 29.0308 36.8666 29.019 36.8768 29.0066C36.8798 29.0029 36.8825 28.9988 36.8855 28.995C36.8934 28.9849 36.9013 28.9747 36.9084 28.9639C36.9106 28.9607 36.9123 28.9574 36.9144 28.9542C36.9219 28.9424 36.9293 28.9306 36.9358 28.9183C36.937 28.9161 36.9379 28.9139 36.939 28.9118C36.946 28.8982 36.9527 28.8845 36.9586 28.8702L36.9602 28.8659C36.9662 28.8511 36.9717 28.836 36.9764 28.8205C36.9769 28.8189 36.9772 28.8172 36.9777 28.8156C36.9822 28.8004 36.9863 28.785 36.9894 28.7692C36.9902 28.7652 36.9905 28.7611 36.9913 28.7571C36.9936 28.7436 36.9959 28.7303 36.9973 28.7166C36.999 28.6987 37 28.6807 37 28.6626V13.6469C36.9995 13.2158 36.828 12.8025 36.5232 12.4977C36.2184 12.1929 35.8051 12.0214 35.374 12.0209ZM12.1728 5.37019C14.8085 5.37019 16.9529 7.53787 16.9529 10.2023C16.9529 12.8667 14.8085 15.0343 12.1728 15.0343C9.53704 15.0343 7.39263 12.8667 7.39263 10.2023C7.39263 7.53794 9.53704 5.37019 12.1728 5.37019ZM1.26465 12.8391C1.21675 12.839 1.17083 12.8199 1.13696 12.7861C1.10309 12.7522 1.08404 12.7063 1.08398 12.6584V10.3134C1.08404 10.2655 1.10309 10.2196 1.13696 10.1857C1.17083 10.1518 1.21675 10.1328 1.26465 10.1327H6.31045C6.31016 10.156 6.30864 10.179 6.30864 10.2023C6.30783 11.1171 6.51899 12.0196 6.92558 12.8391H1.26465ZM20.6492 31.6288H3.80045C3.36937 31.6283 2.95608 31.4569 2.65126 31.1521C2.34644 30.8472 2.17497 30.4339 2.17447 30.0029V13.923H7.6181C8.16344 14.6078 8.85615 15.1608 9.64472 15.5409C10.4333 15.9209 11.2974 16.1183 12.1728 16.1183C13.0482 16.1183 13.9123 15.9209 14.7008 15.5409C15.4894 15.1608 16.1821 14.6078 16.7275 13.923H21.8205V31.0858C21.8205 31.1005 21.8213 31.115 21.8217 31.1296C21.6705 31.2882 21.4885 31.4143 21.2869 31.5001C21.0853 31.5859 20.8683 31.6297 20.6492 31.6288ZM22.0363 12.8391H17.42C17.8265 12.0196 18.0377 11.1171 18.0368 10.2023C18.0368 10.179 18.0354 10.156 18.0351 10.1327H23.0809C23.1288 10.1328 23.1747 10.1518 23.2086 10.1857C23.2425 10.2196 23.2615 10.2655 23.2616 10.3134V12.0317C23.0084 12.061 22.7657 12.1493 22.5529 12.2895C22.34 12.4298 22.1631 12.618 22.0363 12.8391ZM33.4915 30.8623V29.2045H35.1494L33.4915 30.8623ZM35.916 28.1206H32.9495C32.8058 28.1206 32.6679 28.1777 32.5663 28.2793C32.4646 28.381 32.4075 28.5188 32.4075 28.6626V31.6286L23.4465 31.6278C23.3028 31.6276 23.1651 31.5705 23.0635 31.4689C22.9619 31.3673 22.9047 31.2295 22.9045 31.0858V13.6469C22.9047 13.5032 22.9618 13.3654 23.0634 13.2638C23.165 13.1622 23.3028 13.1051 23.4465 13.1049H35.374C35.5177 13.1051 35.6555 13.1622 35.7571 13.2638C35.8587 13.3654 35.9159 13.5032 35.916 13.6469V28.1206ZM29.9541 18.5319H25.6146C25.4708 18.5319 25.3329 18.589 25.2313 18.6907C25.1297 18.7923 25.0726 18.9302 25.0726 19.0739C25.0726 19.2177 25.1297 19.3555 25.2313 19.4572C25.3329 19.5588 25.4708 19.6159 25.6146 19.6159H29.9541C30.0978 19.6159 30.2357 19.5588 30.3373 19.4572C30.439 19.3555 30.4961 19.2177 30.4961 19.0739C30.4961 18.9302 30.439 18.7923 30.3373 18.6907C30.2357 18.589 30.0978 18.5319 29.9541 18.5319ZM29.9541 20.6999H25.6146C25.4708 20.6999 25.3329 20.757 25.2313 20.8586C25.1297 20.9603 25.0726 21.0981 25.0726 21.2419C25.0726 21.3856 25.1297 21.5235 25.2313 21.6251C25.3329 21.7268 25.4708 21.7839 25.6146 21.7839H29.9541C30.0978 21.7839 30.2357 21.7268 30.3373 21.6251C30.439 21.5235 30.4961 21.3856 30.4961 21.2419C30.4961 21.0981 30.439 20.9603 30.3373 20.8586C30.2357 20.757 30.0978 20.6999 29.9541 20.6999ZM29.9541 22.8679H25.6146C25.4708 22.8679 25.3329 22.925 25.2313 23.0266C25.1297 23.1283 25.0726 23.2661 25.0726 23.4099C25.0726 23.5536 25.1297 23.6915 25.2313 23.7931C25.3329 23.8947 25.4708 23.9518 25.6146 23.9518H29.9541C30.0978 23.9518 30.2357 23.8947 30.3373 23.7931C30.439 23.6915 30.4961 23.5536 30.4961 23.4099C30.4961 23.2661 30.439 23.1283 30.3373 23.0266C30.2357 22.925 30.0978 22.8679 29.9541 22.8679ZM33.2061 25.0358H32.1185C31.9747 25.0358 31.8369 25.0929 31.7352 25.1946C31.6336 25.2962 31.5765 25.4341 31.5765 25.5778C31.5765 25.7216 31.6336 25.8594 31.7352 25.9611C31.8369 26.0627 31.9747 26.1198 32.1185 26.1198H33.2061C33.3498 26.1198 33.4877 26.0627 33.5893 25.9611C33.6909 25.8594 33.748 25.7216 33.748 25.5778C33.748 25.4341 33.6909 25.2962 33.5893 25.1946C33.4877 25.0929 33.3498 25.0358 33.2061 25.0358ZM29.9541 25.0358H25.6146C25.4708 25.0358 25.3329 25.0929 25.2313 25.1946C25.1297 25.2962 25.0726 25.4341 25.0726 25.5778C25.0726 25.7216 25.1297 25.8594 25.2313 25.9611C25.3329 26.0627 25.4708 26.1198 25.6146 26.1198H29.9541C30.0978 26.1198 30.2357 26.0627 30.3373 25.9611C30.439 25.8594 30.4961 25.7216 30.4961 25.5778C30.4961 25.4341 30.439 25.2962 30.3373 25.1946C30.2357 25.0929 30.0978 25.0358 29.9541 25.0358Z" fill="#EB0067"/>
</g>
<defs>
<clipPath id="clip0_901_5017">
<rect width="37" height="37" fill="white"/>
</clipPath>
</defs>
</svg>
