<svg width="39" height="36" viewBox="0 0 39 36" fill="none" xmlns="http://www.w3.org/2000/svg">
<ellipse cx="19.5" cy="17.875" rx="19.5" ry="17.875" fill="#F7E6EE"/>
<path d="M19.83 28.08C16.78 28.08 13.73 27.64 10.7 26.77C10.28 26.65 10 26.27 10 25.84C10 20.42 14.41 16.01 19.83 16.01C25.25 16.01 29.66 20.42 29.66 25.84C29.66 26.27 29.37 26.65 28.96 26.77C25.93 27.64 22.88 28.08 19.83 28.08ZM11.98 25.11C17.2 26.48 22.47 26.48 27.69 25.11C27.32 21.1 23.94 17.95 19.83 17.95C15.72 17.95 12.35 21.1 11.98 25.11ZM19.83 15C17.07 15 14.83 12.76 14.83 10C14.83 7.24 17.07 5 19.83 5C22.59 5 24.83 7.24 24.83 10C24.84 12.75 22.59 15 19.83 15ZM19.83 6.93C19.2248 6.93 18.6332 7.10947 18.13 7.4457C17.6267 7.78194 17.2345 8.25985 17.0029 8.81899C16.7713 9.37813 16.7107 9.9934 16.8288 10.587C16.9469 11.1806 17.2383 11.7258 17.6663 12.1537C18.0942 12.5817 18.6394 12.8731 19.233 12.9912C19.8266 13.1093 20.4419 13.0487 21.001 12.8171C21.5602 12.5855 22.0381 12.1933 22.3743 11.69C22.7105 11.1868 22.89 10.5952 22.89 9.99C22.9 8.3 21.52 6.93 19.83 6.93Z" fill="#EB1774"/>
</svg>
