<svg width="17" height="11" viewBox="0 0 17 11" fill="none" xmlns="http://www.w3.org/2000/svg">
<path d="M15.0911 7.13379C14.3609 7.13379 13.6606 7.42386 13.1443 7.94019C12.628 8.45652 12.3379 9.15681 12.3379 9.88702" stroke="black" stroke-width="0.294583" stroke-miterlimit="10" stroke-linecap="round" stroke-linejoin="round"/>
<path d="M12.3379 1.71582C12.3379 2.44602 12.628 3.14632 13.1443 3.66265C13.6606 4.17898 14.3609 4.46905 15.0911 4.46905" stroke="black" stroke-width="0.294583" stroke-miterlimit="10" stroke-linecap="round" stroke-linejoin="round"/>
<path d="M1 4.46905C1.7302 4.46905 2.43049 4.17898 2.94683 3.66265C3.46316 3.14632 3.75323 2.44602 3.75323 1.71582" stroke="black" stroke-width="0.294583" stroke-miterlimit="10" stroke-linecap="round" stroke-linejoin="round"/>
<path d="M3.75323 9.88702C3.75323 9.52546 3.68201 9.16744 3.54365 8.8334C3.40529 8.49936 3.20249 8.19585 2.94683 7.94019C2.69116 7.68453 2.38765 7.48173 2.05361 7.34337C1.71958 7.205 1.36156 7.13379 1 7.13379" stroke="black" stroke-width="0.294583" stroke-miterlimit="10" stroke-linecap="round" stroke-linejoin="round"/>
<path d="M1 1.71582H15.0916V9.88687H1V1.71582Z" stroke="black" stroke-width="0.294583" stroke-miterlimit="10" stroke-linecap="round" stroke-linejoin="round"/>
<path d="M9.09798 4.74918C9.09798 4.54115 9.03629 4.33778 8.92072 4.1648C8.80515 3.99182 8.64088 3.857 8.44868 3.77737C8.25649 3.69774 8.045 3.67689 7.84096 3.71745C7.63691 3.75802 7.44948 3.85817 7.30235 4.00525C7.15523 4.15233 7.05502 4.33974 7.01439 4.54377C6.97377 4.7478 6.99455 4.95929 7.07412 5.15151C7.15369 5.34373 7.28847 5.50804 7.46141 5.62366C7.63435 5.73929 7.8377 5.80104 8.04574 5.8011" stroke="black" stroke-width="0.294583" stroke-miterlimit="10" stroke-linecap="round" stroke-linejoin="round"/>
<path d="M6.99414 6.85368C6.99414 7.06172 7.05583 7.2651 7.17142 7.43809C7.28701 7.61108 7.45129 7.7459 7.64351 7.82552C7.83572 7.90514 8.04723 7.92597 8.25128 7.88538C8.45533 7.84479 8.64276 7.74461 8.78988 7.59749C8.93699 7.45038 9.03717 7.26295 9.07776 7.05889C9.11835 6.85484 9.09752 6.64334 9.0179 6.45112C8.93829 6.25891 8.80346 6.09462 8.63047 5.97904C8.45748 5.86345 8.25411 5.80176 8.04606 5.80176" stroke="black" stroke-width="0.294583" stroke-miterlimit="10" stroke-linecap="round" stroke-linejoin="round"/>
<path d="M8.04492 3.27539V8.32743" stroke="black" stroke-width="0.294583" stroke-miterlimit="10" stroke-linecap="round" stroke-linejoin="round"/>
<path d="M15.0938 8.50895H16.4705V0.338867H2.37891V1.71564" stroke="black" stroke-width="0.294583" stroke-miterlimit="10" stroke-linecap="round" stroke-linejoin="round"/>
<path d="M15.0911 7.13379C14.3609 7.13379 13.6606 7.42386 13.1443 7.94019C12.628 8.45652 12.3379 9.15681 12.3379 9.88702" stroke="black" stroke-width="0.294583" stroke-miterlimit="10" stroke-linecap="round" stroke-linejoin="round"/>
<path d="M12.3379 1.71582C12.3379 2.44602 12.628 3.14632 13.1443 3.66265C13.6606 4.17898 14.3609 4.46905 15.0911 4.46905" stroke="black" stroke-width="0.294583" stroke-miterlimit="10" stroke-linecap="round" stroke-linejoin="round"/>
<path d="M1 4.46905C1.7302 4.46905 2.43049 4.17898 2.94683 3.66265C3.46316 3.14632 3.75323 2.44602 3.75323 1.71582" stroke="black" stroke-width="0.294583" stroke-miterlimit="10" stroke-linecap="round" stroke-linejoin="round"/>
<path d="M3.75323 9.88702C3.75323 9.52546 3.68201 9.16744 3.54365 8.8334C3.40529 8.49936 3.20249 8.19585 2.94683 7.94019C2.69116 7.68453 2.38765 7.48173 2.05361 7.34337C1.71958 7.205 1.36156 7.13379 1 7.13379" stroke="black" stroke-width="0.294583" stroke-miterlimit="10" stroke-linecap="round" stroke-linejoin="round"/>
<path d="M1 1.71582H15.0916V9.88687H1V1.71582Z" stroke="black" stroke-width="0.294583" stroke-miterlimit="10" stroke-linecap="round" stroke-linejoin="round"/>
<path d="M9.09798 4.74918C9.09798 4.54115 9.03629 4.33778 8.92072 4.1648C8.80515 3.99182 8.64088 3.857 8.44868 3.77737C8.25649 3.69774 8.045 3.67689 7.84096 3.71745C7.63691 3.75802 7.44948 3.85817 7.30235 4.00525C7.15523 4.15233 7.05502 4.33974 7.01439 4.54377C6.97377 4.7478 6.99455 4.95929 7.07412 5.15151C7.15369 5.34373 7.28847 5.50804 7.46141 5.62366C7.63435 5.73929 7.8377 5.80104 8.04574 5.8011" stroke="black" stroke-width="0.294583" stroke-miterlimit="10" stroke-linecap="round" stroke-linejoin="round"/>
<path d="M6.99414 6.85368C6.99414 7.06172 7.05583 7.2651 7.17142 7.43809C7.28701 7.61108 7.45129 7.7459 7.64351 7.82552C7.83572 7.90514 8.04723 7.92597 8.25128 7.88538C8.45533 7.84479 8.64276 7.74461 8.78988 7.59749C8.93699 7.45038 9.03717 7.26295 9.07776 7.05889C9.11835 6.85484 9.09752 6.64334 9.0179 6.45112C8.93829 6.25891 8.80346 6.09462 8.63047 5.97904C8.45748 5.86345 8.25411 5.80176 8.04606 5.80176" stroke="black" stroke-width="0.294583" stroke-miterlimit="10" stroke-linecap="round" stroke-linejoin="round"/>
<path d="M8.04492 3.27539V8.32743" stroke="black" stroke-width="0.294583" stroke-miterlimit="10" stroke-linecap="round" stroke-linejoin="round"/>
<path d="M15.0938 8.50895H16.4705V0.338867H2.37891V1.71564" stroke="black" stroke-width="0.294583" stroke-miterlimit="10" stroke-linecap="round" stroke-linejoin="round"/>
</svg>
