<svg width="15" height="15" viewBox="0 0 15 15" fill="none" xmlns="http://www.w3.org/2000/svg">
<g clip-path="url(#clip0_901_5119)">
<path d="M13.9239 1.85645H0.928261C0.682071 1.85645 0.445964 1.95424 0.271881 2.12833C0.0977986 2.30241 0 2.53852 0 2.78471L0 12.0673C0 12.3135 0.0977986 12.5496 0.271881 12.7237C0.445964 12.8978 0.682071 12.9956 0.928261 12.9956H13.9239C14.1701 12.9956 14.4062 12.8978 14.5803 12.7237C14.7544 12.5496 14.8522 12.3135 14.8522 12.0673V2.78471C14.8522 2.53852 14.7544 2.30241 14.5803 2.12833C14.4062 1.95424 14.1701 1.85645 13.9239 1.85645ZM13.9239 12.0673H0.928261V6.49775H13.9239V12.0673ZM0.928261 4.68021V2.78471H13.9239V4.68021H0.928261ZM2.32065 11.1391H6.96196C7.08505 11.1391 7.2031 11.0902 7.29015 11.0031C7.37719 10.9161 7.42609 10.798 7.42609 10.6749C7.42609 10.5518 7.37719 10.4338 7.29015 10.3467C7.2031 10.2597 7.08505 10.2108 6.96196 10.2108H2.32065C2.19756 10.2108 2.0795 10.2597 1.99246 10.3467C1.90542 10.4338 1.85652 10.5518 1.85652 10.6749C1.85652 10.798 1.90542 10.9161 1.99246 11.0031C2.0795 11.0902 2.19756 11.1391 2.32065 11.1391ZM8.35435 10.6749C8.35435 10.798 8.40325 10.9161 8.49029 11.0031C8.57733 11.0902 8.69538 11.1391 8.81848 11.1391C8.94157 11.1391 9.05963 11.0902 9.14667 11.0031C9.23371 10.9161 9.28261 10.798 9.28261 10.6749C9.28261 10.5518 9.23371 10.4338 9.14667 10.3467C9.05963 10.2597 8.94157 10.2108 8.81848 10.2108C8.69538 10.2108 8.57733 10.2597 8.49029 10.3467C8.40325 10.4338 8.35435 10.5518 8.35435 10.6749ZM10.2109 10.6749C10.2109 10.798 10.2598 10.9161 10.3468 11.0031C10.4339 11.0902 10.5519 11.1391 10.675 11.1391C10.7981 11.1391 10.9161 11.0902 11.0032 11.0031C11.0902 10.9161 11.1391 10.798 11.1391 10.6749C11.1391 10.5518 11.0902 10.4338 11.0032 10.3467C10.9161 10.2597 10.7981 10.2108 10.675 10.2108C10.5519 10.2108 10.4339 10.2597 10.3468 10.3467C10.2598 10.4338 10.2109 10.5518 10.2109 10.6749ZM12.0674 10.6749C12.0674 10.7359 12.0794 10.7962 12.1027 10.8525C12.126 10.9088 12.1602 10.96 12.2033 11.0031C12.2464 11.0462 12.2976 11.0804 12.3539 11.1037C12.4102 11.127 12.4706 11.1391 12.5315 11.1391C12.5925 11.1391 12.6528 11.127 12.7091 11.1037C12.7654 11.0804 12.8166 11.0462 12.8597 11.0031C12.9028 10.96 12.937 10.9088 12.9603 10.8525C12.9836 10.7962 12.9957 10.7359 12.9957 10.6749C12.9957 10.5518 12.9468 10.4338 12.8597 10.3467C12.7727 10.2597 12.6546 10.2108 12.5315 10.2108C12.4084 10.2108 12.2904 10.2597 12.2033 10.3467C12.1163 10.4338 12.0674 10.5518 12.0674 10.6749Z" fill="black"/>
</g>
<defs>
<clipPath id="clip0_901_5119">
<rect width="14.8522" height="14.8522" fill="white"/>
</clipPath>
</defs>
</svg>
