<svg width="39" height="36" viewBox="0 0 39 36" fill="none" xmlns="http://www.w3.org/2000/svg">
<ellipse cx="19.5" cy="17.875" rx="19.5" ry="17.875" fill="#F7E6EE"/>
<g clip-path="url(#clip0_901_4851)">
<path d="M27.0248 8.29217C26.9146 8.22743 26.7832 8.20898 26.6594 8.24086C26.5357 8.27274 26.4296 8.35236 26.3643 8.46228L22.9103 14.3137C22.8926 14.3441 22.8783 14.3763 22.8676 14.4098C22.4812 14.553 22.1205 14.758 21.7995 15.0166C20.7529 13.2385 18.8353 12.119 16.7404 12.119C13.5079 12.119 10.8784 14.7447 10.8694 17.975H10.1074L10.1756 18.5177C10.572 21.6715 12.5171 24.4262 15.3138 25.8768V27.739H22.5301C23.4448 27.739 24.189 26.9941 24.189 26.0792V25.877C26.9865 24.4258 28.9307 21.6711 29.3281 18.5177L29.3962 17.9746H28.0202C28.0138 16.3258 26.9564 14.924 25.4857 14.3948L29.7951 10.2478C29.9868 10.0634 29.9929 9.75788 29.8079 9.56623C29.764 9.52061 29.7116 9.48406 29.6536 9.4587C29.5957 9.43333 29.5332 9.41963 29.47 9.41838C29.4067 9.41714 29.3438 9.42837 29.2849 9.45144C29.226 9.47451 29.1722 9.50896 29.1265 9.55283L24.3261 14.173C24.283 14.1713 24.2402 14.1665 24.1964 14.1665C24.1687 14.1665 24.1421 14.1704 24.1149 14.1708L27.1949 8.95261C27.2271 8.89808 27.2482 8.83773 27.2571 8.77503C27.266 8.71232 27.2624 8.64848 27.2466 8.58715C27.2308 8.52582 27.2031 8.46821 27.1651 8.41759C27.127 8.36698 27.0793 8.32436 27.0248 8.29217ZM16.7402 13.0836C18.5857 13.0836 20.2679 14.1225 21.1046 15.7502C20.7995 16.1697 20.5832 16.6471 20.469 17.153C20.0854 15.4458 18.5606 14.166 16.7402 14.166C14.6375 14.166 12.927 15.8733 12.918 17.9748H11.834C11.8428 15.2766 14.0397 13.0836 16.7402 13.0836ZM16.7402 16.2157C15.7665 16.2157 14.9742 17.0036 14.9652 17.9748H13.8828C13.8918 16.4051 15.1694 15.1308 16.7402 15.1308C18.3114 15.1308 19.5903 16.4051 19.5984 17.9748H18.5147C18.5061 17.0036 17.7138 16.2157 16.7402 16.2157ZM17.5494 17.975H15.9309C15.9352 17.763 16.0224 17.5611 16.1737 17.4126C16.3251 17.264 16.5286 17.1807 16.7406 17.1803C16.9526 17.1807 17.1559 17.2641 17.3071 17.4127C17.4583 17.5613 17.5453 17.7631 17.5494 17.975ZM28.2848 18.9396C27.7487 21.7427 25.8479 24.1324 23.2134 25.277H21.6694V26.2418H23.203C23.1669 26.3932 23.0809 26.5281 22.9589 26.6247C22.8369 26.7212 22.6859 26.774 22.5303 26.7744H16.2786V26.2418H18.0872V25.277H16.2903C13.6558 24.133 11.7547 21.7427 11.2182 18.9396H28.2848ZM23.3874 17.975C23.3917 17.7631 23.4787 17.5613 23.6299 17.4127C23.7811 17.2642 23.9845 17.1808 24.1964 17.1803C24.4086 17.1805 24.6122 17.2638 24.7636 17.4124C24.9151 17.5609 25.0023 17.7629 25.0065 17.975H23.3874ZM24.1964 15.1311C25.7683 15.1311 27.0476 16.4054 27.056 17.975H25.9716C25.9628 17.0038 25.1703 16.2159 24.1964 16.2159C23.2228 16.2159 22.4312 17.0038 22.4224 17.975H21.3391C21.3479 16.4054 22.6254 15.1311 24.1964 15.1311Z" fill="#EB1774"/>
<path d="M23.9903 23.6055C24.0674 23.6055 24.1454 23.5873 24.2173 23.5484C24.8063 23.233 25.3233 22.7985 25.7352 22.2724C26.147 21.7464 26.4448 21.1403 26.6096 20.4928C26.6254 20.4313 26.6289 20.3673 26.6199 20.3045C26.6109 20.2416 26.5896 20.1812 26.5572 20.1266C26.5248 20.0721 26.4819 20.0244 26.431 19.9864C26.3802 19.9485 26.3223 19.9209 26.2608 19.9053C26.1993 19.8898 26.1353 19.8865 26.0725 19.8957C26.0097 19.905 25.9493 19.9265 25.8949 19.9591C25.8404 19.9917 25.7929 20.0347 25.7551 20.0857C25.7173 20.1367 25.69 20.1947 25.6747 20.2563C25.5431 20.7738 25.3052 21.2582 24.9761 21.6787C24.647 22.0991 24.234 22.4465 23.7632 22.6985C23.6683 22.749 23.593 22.8298 23.5493 22.9281C23.5057 23.0264 23.4961 23.1364 23.5222 23.2407C23.5483 23.345 23.6086 23.4376 23.6934 23.5037C23.7782 23.5698 23.8827 23.6057 23.9903 23.6055Z" fill="#EB1774"/>
<path d="M22.8238 24.3664C23.1397 24.3664 23.3957 24.1104 23.3957 23.7945C23.3957 23.4787 23.1397 23.2227 22.8238 23.2227C22.508 23.2227 22.252 23.4787 22.252 23.7945C22.252 24.1104 22.508 24.3664 22.8238 24.3664Z" fill="#EB1774"/>
</g>
<defs>
<clipPath id="clip0_901_4851">
<rect width="20" height="20" fill="white" transform="translate(10 8)"/>
</clipPath>
</defs>
</svg>
