<svg width="39" height="36" viewBox="0 0 39 36" fill="none" xmlns="http://www.w3.org/2000/svg">
<ellipse cx="19.5" cy="17.875" rx="19.5" ry="17.875" fill="#F7E6EE"/>
<g clip-path="url(#clip0_901_4861)">
<path d="M16 12C16.2652 12 16.5196 11.8946 16.7071 11.7071C16.8946 11.5196 17 11.2652 17 11C17 10.7348 16.8946 10.4804 16.7071 10.2929C16.5196 10.1054 16.2652 10 16 10H14C13.7348 10 13.4804 10.1054 13.2929 10.2929C13.1054 10.4804 13 10.7348 13 11V25C13 25.2652 13.1054 25.5196 13.2929 25.7071C13.4804 25.8946 13.7348 26 14 26H16C16.2652 26 16.5196 25.8946 16.7071 25.7071C16.8946 25.5196 17 25.2652 17 25C17 24.7348 16.8946 24.4804 16.7071 24.2929C16.5196 24.1054 16.2652 24 16 24H15V12H16ZM29.82 17.42L27 13.42C26.8471 13.2044 26.615 13.0581 26.3545 13.0132C26.0941 12.9682 25.8264 13.0282 25.61 13.18C25.5018 13.2558 25.4098 13.3522 25.3391 13.4638C25.2684 13.5754 25.2206 13.6998 25.1982 13.83C25.1759 13.9601 25.1796 14.0934 25.2091 14.2222C25.2386 14.3509 25.2933 14.4725 25.37 14.58L27.09 17H19C18.7348 17 18.4804 17.1054 18.2929 17.2929C18.1054 17.4804 18 17.7348 18 18C18 18.2652 18.1054 18.5196 18.2929 18.7071C18.4804 18.8946 18.7348 19 19 19H27L25.2 21.4C25.1212 21.5051 25.0639 21.6246 25.0313 21.7518C24.9987 21.879 24.9915 22.0114 25.01 22.1414C25.0286 22.2714 25.0726 22.3965 25.1395 22.5095C25.2064 22.6225 25.2949 22.7212 25.4 22.8C25.5731 22.9298 25.7836 23 26 23C26.1552 23 26.3084 22.9639 26.4472 22.8944C26.5861 22.825 26.7069 22.7242 26.8 22.6L29.8 18.6C29.9281 18.4309 29.999 18.2254 30.0026 18.0133C30.0062 17.8011 29.9423 17.5934 29.82 17.42Z" fill="#EB1774"/>
</g>
<defs>
<clipPath id="clip0_901_4861">
<rect width="24" height="24" fill="white" transform="translate(9 6)"/>
</clipPath>
</defs>
</svg>
