<svg width="24" height="24" viewBox="0 0 24 24" fill="none" xmlns="http://www.w3.org/2000/svg">
<path fill-rule="evenodd" clip-rule="evenodd" d="M8 18.75C4.27208 18.75 1.25 15.7279 1.25 12C1.25 8.2721 4.27208 5.25 8 5.25C11.7279 5.25 14.75 8.2721 14.75 12C14.75 15.7279 11.7279 18.75 8 18.75Z" fill="#EE4D4D"/>
<path fill-rule="evenodd" clip-rule="evenodd" d="M16 18.75C12.2721 18.75 9.25 15.7279 9.25 12C9.25 8.2721 12.2721 5.25 16 5.25C19.7279 5.25 22.75 8.2721 22.75 12C22.75 15.7279 19.7279 18.75 16 18.75Z" fill="#FFC44D"/>
<path fill-rule="evenodd" clip-rule="evenodd" d="M12 17.4375C10.3321 16.2085 9.25 14.2305 9.25 11.9998C9.25 9.76912 10.3321 7.79112 12 6.56212C13.6679 7.79112 14.75 9.76912 14.75 11.9998C14.75 14.2305 13.6679 16.2085 12 17.4375Z" fill="#FF884D"/>
</svg>
