<svg width="39" height="36" viewBox="0 0 39 36" fill="none" xmlns="http://www.w3.org/2000/svg">
<ellipse cx="19.5" cy="17.875" rx="19.5" ry="17.875" fill="#F7E6EE"/>
<path d="M28.3204 8.86952C27.8403 8.39264 27.191 8.125 26.5143 8.125C25.8376 8.125 25.1884 8.39264 24.7082 8.86952L13.6722 19.9056C13.5686 20.0125 13.5006 20.1486 13.4772 20.2956L13.0082 23.3924C12.9928 23.4916 12.9991 23.593 13.0265 23.6895C13.054 23.7861 13.102 23.8756 13.1672 23.9519C13.2325 24.0282 13.3135 24.0895 13.4046 24.1315C13.4958 24.1736 13.595 24.1954 13.6954 24.1956H13.8022L16.8943 23.7313C17.0413 23.7079 17.1774 23.6398 17.2843 23.5363L28.3204 12.4817C28.7973 12.0015 29.0649 11.3523 29.0649 10.6756C29.0649 9.99889 28.7973 9.34964 28.3204 8.86952ZM16.4625 22.371L14.5265 22.6635L14.8189 20.7274L23.8818 11.6692L25.5207 13.3081L16.4625 22.371ZM27.3361 11.4974L26.18 12.6535L24.5364 11.0099L25.6925 9.85381C25.9105 9.63586 26.2061 9.51341 26.5143 9.51341C26.8225 9.51341 27.1181 9.63586 27.3361 9.85381C27.554 10.0718 27.6765 10.3674 27.6765 10.6756C27.6765 10.9838 27.554 11.2794 27.3361 11.4974Z" fill="#EB1774"/>
<path d="M12.9883 28.0312H27.6358" stroke="#EB1774" stroke-width="1.625" stroke-linecap="round"/>
</svg>
