<svg width="39" height="36" viewBox="0 0 39 36" fill="none" xmlns="http://www.w3.org/2000/svg">
<ellipse cx="19.5" cy="17.875" rx="19.5" ry="17.875" fill="#F7E6EE"/>
<path d="M21.6275 16.4639C21.4372 16.4639 21.2548 16.5396 21.1203 16.6744C20.9857 16.8092 20.9102 16.992 20.9102 17.1826V19.8176C20.9102 20.0082 20.9857 20.191 21.1203 20.3258C21.2548 20.4606 21.4372 20.5363 21.6275 20.5363C21.8177 20.5363 22.0002 20.4606 22.1347 20.3258C22.2692 20.191 22.3448 20.0082 22.3448 19.8176V17.1826C22.3448 16.992 22.2692 16.8092 22.1347 16.6744C22.0002 16.5396 21.8177 16.4639 21.6275 16.4639Z" fill="#EB1774"/>
<path d="M29.5186 15.3052V13.4688C29.5186 13.0875 29.3674 12.7219 29.0984 12.4523C28.8293 12.1827 28.4644 12.0313 28.0839 12.0312H10.8682C10.4877 12.0312 10.1228 12.1827 9.85379 12.4523C9.58474 12.7219 9.43359 13.0875 9.43359 13.4688V15.3052C9.43474 15.5102 9.47925 15.7127 9.56419 15.8993C9.64914 16.0859 9.77258 16.2523 9.92639 16.3876C10.2231 16.6533 10.4604 16.9789 10.6227 17.3429C10.785 17.707 10.8687 18.1013 10.8682 18.5C10.8688 18.8986 10.7852 19.2927 10.623 19.6567C10.4608 20.0206 10.2237 20.346 9.92711 20.6117C9.77312 20.747 9.64951 20.9135 9.56444 21.1002C9.47937 21.2869 9.43477 21.4896 9.43359 21.6948V23.5312C9.43359 23.9125 9.58474 24.2781 9.85379 24.5477C10.1228 24.8173 10.4877 24.9688 10.8682 24.9688H28.0839C28.4644 24.9688 28.8293 24.8173 29.0984 24.5477C29.3674 24.2781 29.5186 23.9125 29.5186 23.5312V21.6948C29.5175 21.4897 29.4729 21.2871 29.3878 21.1005C29.3028 20.9139 29.1791 20.7475 29.0251 20.6124C28.729 20.3463 28.4921 20.0207 28.33 19.6568C28.1678 19.2929 28.0841 18.8989 28.0841 18.5004C28.0841 18.1018 28.1678 17.7078 28.33 17.3439C28.4921 16.98 28.729 16.6544 29.0251 16.3883C29.1791 16.253 29.3027 16.0865 29.3877 15.8998C29.4728 15.7131 29.5174 15.5104 29.5186 15.3052ZM28.0603 15.3246C27.6142 15.7268 27.2579 16.219 27.0147 16.7688C26.7715 17.3186 26.647 17.9136 26.6492 18.515C26.6515 19.1164 26.7804 19.7105 27.0277 20.2585C27.2749 20.8064 27.6348 21.2959 28.0839 21.6948V23.5312H22.3454V22.4531C22.3454 22.2625 22.2698 22.0797 22.1353 21.9449C22.0008 21.8101 21.8183 21.7344 21.6281 21.7344C21.4378 21.7344 21.2554 21.8101 21.1208 21.9449C20.9863 22.0797 20.9107 22.2625 20.9107 22.4531V23.5312H10.8682L10.8919 21.6754C11.3344 21.2734 11.6884 20.7834 11.9313 20.2367C12.1743 19.6899 12.3008 19.0985 12.3029 18.5C12.2999 17.8966 12.1707 17.3005 11.9236 16.7502C11.6764 16.1999 11.3169 15.7076 10.8682 15.3052V13.4688H20.9107V14.5469C20.9107 14.7375 20.9863 14.9203 21.1208 15.0551C21.2554 15.1899 21.4378 15.2656 21.6281 15.2656C21.8183 15.2656 22.0008 15.1899 22.1353 15.0551C22.2698 14.9203 22.3454 14.7375 22.3454 14.5469V13.4688H28.0839L28.0603 15.3246Z" fill="#EB1774"/>
</svg>
