<svg width="39" height="36" viewBox="0 0 39 36" fill="none" xmlns="http://www.w3.org/2000/svg">
<ellipse cx="19.5" cy="17.875" rx="19.5" ry="17.875" fill="#F7E6EE"/>
<path fill-rule="evenodd" clip-rule="evenodd" d="M19.438 9C18.816 9 18.312 9.504 18.312 10.125L18.177 11.07C18.1493 11.2633 18.0718 11.4461 17.9521 11.6003C17.8323 11.7546 17.6745 11.875 17.4941 11.9498C17.3137 12.0246 17.1169 12.0511 16.9232 12.0268C16.7294 12.0024 16.5453 11.9281 16.389 11.811L15.625 11.238C15.5205 11.1335 15.3965 11.0507 15.26 10.9941C15.1235 10.9376 14.9772 10.9085 14.8295 10.9085C14.6818 10.9085 14.5355 10.9376 14.399 10.9941C14.2625 11.0507 14.1385 11.1335 14.034 11.238L13.238 12.034C12.798 12.474 12.798 13.185 13.238 13.624L13.811 14.389C13.928 14.5452 14.0024 14.7292 14.0268 14.9229C14.0512 15.1166 14.0248 15.3133 13.9501 15.4937C13.8755 15.6741 13.7551 15.8319 13.601 15.9517C13.4469 16.0715 13.2642 16.1492 13.071 16.177L12.125 16.313C11.504 16.313 11 16.816 11 17.437V18.563C11 19.183 11.504 19.687 12.125 19.687L13.07 19.823C13.2633 19.8507 13.4461 19.9282 13.6003 20.0479C13.7546 20.1677 13.875 20.3255 13.9498 20.5059C14.0246 20.6863 14.0511 20.8831 14.0268 21.0768C14.0024 21.2706 13.9281 21.4547 13.811 21.611L13.238 22.375C12.798 22.815 12.798 23.527 13.238 23.966L14.034 24.762C14.474 25.202 15.185 25.202 15.624 24.762L16.389 24.189C16.5452 24.072 16.7292 23.9976 16.9229 23.9732C17.1166 23.9488 17.3133 23.9752 17.4937 24.0499C17.6741 24.1245 17.8319 24.2449 17.9517 24.399C18.0715 24.5531 18.1492 24.7358 18.177 24.929L18.313 25.875C18.313 26.496 18.816 27 19.437 27H20.563C21.183 27 21.687 26.496 21.687 25.875L21.823 24.93C21.8507 24.7367 21.9282 24.5539 22.0479 24.3997C22.1677 24.2454 22.3255 24.125 22.5059 24.0502C22.6863 23.9754 22.8831 23.9489 23.0768 23.9732C23.2706 23.9976 23.4547 24.0719 23.611 24.189L24.375 24.762C24.815 25.202 25.527 25.202 25.966 24.762L26.762 23.966C27.201 23.526 27.201 22.815 26.762 22.376L26.189 21.611C26.072 21.4548 25.9976 21.2708 25.9732 21.0771C25.9488 20.8834 25.9752 20.6867 26.0499 20.5063C26.1245 20.3259 26.2449 20.1681 26.399 20.0483C26.5531 19.9285 26.7358 19.8508 26.929 19.823L27.875 19.687C28.496 19.687 29 19.184 29 18.563V17.437C29 16.817 28.496 16.313 27.875 16.313L26.93 16.177C26.7367 16.1493 26.5539 16.0718 26.3997 15.9521C26.2454 15.8323 26.125 15.6745 26.0502 15.4941C25.9754 15.3137 25.9489 15.1169 25.9732 14.9232C25.9976 14.7294 26.0719 14.5453 26.189 14.389L26.762 13.625C27.201 13.185 27.201 12.473 26.762 12.034L25.966 11.238C25.7551 11.0273 25.4691 10.909 25.171 10.909C24.8729 10.909 24.5869 11.0273 24.376 11.238L23.611 11.811C23.4548 11.928 23.2708 12.0024 23.0771 12.0268C22.8834 12.0512 22.6867 12.0248 22.5063 11.9501C22.3259 11.8755 22.1681 11.7551 22.0483 11.601C21.9285 11.4469 21.8508 11.2642 21.823 11.071L21.687 10.125C21.687 9.504 21.184 9 20.563 9H19.438ZM20 20.25C20.5967 20.25 21.169 20.0129 21.591 19.591C22.0129 19.169 22.25 18.5967 22.25 18C22.25 17.4033 22.0129 16.831 21.591 16.409C21.169 15.9871 20.5967 15.75 20 15.75C19.4033 15.75 18.831 15.9871 18.409 16.409C17.9871 16.831 17.75 17.4033 17.75 18C17.75 18.5967 17.9871 19.169 18.409 19.591C18.831 20.0129 19.4033 20.25 20 20.25Z" fill="#EB1774"/>
</svg>
