<svg width="39" height="36" viewBox="0 0 39 36" fill="none" xmlns="http://www.w3.org/2000/svg">
<ellipse cx="19.5" cy="17.875" rx="19.5" ry="17.875" fill="#F7E6EE"/>
<g clip-path="url(#clip0_901_4853)">
<path d="M18.9993 9.66699C15.7785 9.66699 13.166 12.2795 13.166 15.5003C13.166 19.8753 18.9993 26.3337 18.9993 26.3337C18.9993 26.3337 24.8327 19.8753 24.8327 15.5003C24.8327 12.2795 22.2202 9.66699 18.9993 9.66699ZM18.9993 17.5837C17.8493 17.5837 16.916 16.6503 16.916 15.5003C16.916 14.3503 17.8493 13.417 18.9993 13.417C20.1493 13.417 21.0827 14.3503 21.0827 15.5003C21.0827 16.6503 20.1493 17.5837 18.9993 17.5837Z" fill="#EB1774"/>
</g>
<defs>
<clipPath id="clip0_901_4853">
<rect width="20" height="20" fill="white" transform="translate(9 8)"/>
</clipPath>
</defs>
</svg>
