<svg width="39" height="36" viewBox="0 0 39 36" fill="none" xmlns="http://www.w3.org/2000/svg">
<ellipse cx="19.5" cy="17.875" rx="19.5" ry="17.875" fill="#F7E6EE"/>
<path d="M18.5171 20.91C18.5171 21.3138 18.8445 21.6413 19.2483 21.6413C19.6521 21.6413 19.9796 21.3138 19.9796 20.91V20.5298C21.5087 20.0943 21.7329 19.0786 21.7459 18.5887C21.7719 17.569 20.9854 16.8695 19.4084 16.5103C18.3139 16.2617 18.2124 15.9944 18.2197 15.8912C18.2595 15.3013 19.4458 15.1941 19.9958 15.2095C19.9958 15.6133 20.3233 15.9408 20.7271 15.9408C21.1309 15.9408 21.4583 15.6133 21.4583 15.2095C21.4583 14.8057 21.2918 14.4133 21.0009 14.133C20.723 13.8648 20.372 13.7161 19.9796 13.7194V13.535C19.9796 13.1311 19.6521 12.8037 19.2483 12.8037C18.8445 12.8037 18.5171 13.1311 18.5171 13.535V13.9176C17.1082 14.3182 16.7994 15.2128 16.7604 15.7913C16.6881 16.8475 17.4706 17.569 19.0842 17.9355C20.2591 18.2028 20.2851 18.5148 20.2843 18.5497C20.268 19.1753 18.8283 19.259 18.5081 19.259H18.5073C18.4976 19.2501 18.4976 19.242 18.4976 19.2371C18.4976 18.8333 18.1701 18.5066 17.7663 18.5066C17.3625 18.5066 17.0351 18.8341 17.0351 19.2379C17.0351 19.6458 17.1968 20.0276 17.4909 20.3112C17.7655 20.5769 18.1368 20.7256 18.5179 20.7305V20.91H18.5171Z" fill="#EB1774"/>
<path d="M16.4107 23.6782C13.8488 22.5561 12.193 20.0219 12.193 17.222C12.193 13.3334 15.3601 10.1695 19.2536 10.1695C22.8871 10.1695 25.9031 12.8914 26.2695 16.4997C26.3102 16.9011 26.6677 17.1912 27.0707 17.1538C27.4728 17.1132 27.7653 16.754 27.7247 16.3527C27.2819 11.9936 23.6403 8.70703 19.2536 8.70703C14.5541 8.70703 10.7305 12.5266 10.7305 17.222C10.7305 20.6028 12.7292 23.6627 15.824 25.0172C15.9191 25.0594 16.019 25.0789 16.1165 25.0789C16.3985 25.0789 16.6666 24.9148 16.7868 24.6402C16.9493 24.2713 16.7812 23.8398 16.4107 23.6782Z" fill="#EB1774"/>
<path d="M28.1866 30.5635H23.9226C23.5538 30.5635 23.202 30.405 22.9582 30.128L19.566 26.2767C19.1549 25.8104 19.133 25.1173 19.5132 24.6257C19.9195 24.1 20.658 23.966 21.2235 24.3154L23.0931 25.4732V20.2187C23.0931 19.4818 23.6903 18.8838 24.428 18.8838C25.165 18.8838 25.763 19.481 25.763 20.2187V23.5475L29.1316 23.9603C30.1066 24.0797 30.7436 25.0425 30.4722 25.9867L29.4225 29.634C29.2632 30.184 28.7595 30.5635 28.1866 30.5635Z" fill="white"/>
<path d="M30.8804 24.2606C30.5042 23.691 29.8989 23.3172 29.2212 23.2336L26.4945 22.8996V20.2176C26.4945 19.0784 25.5674 18.1514 24.4291 18.1514C23.2908 18.1514 22.3637 19.0784 22.3637 20.2176V24.159L21.6097 23.6926C20.7233 23.1426 19.5744 23.3522 18.9358 24.1777C18.3435 24.9455 18.3776 26.031 19.0187 26.759L22.4109 30.6111C22.7935 31.0449 23.3452 31.2944 23.9237 31.2944H28.1877C29.0815 31.2944 29.8777 30.6947 30.1255 29.8359L31.1753 26.1886C31.3638 25.5321 31.2565 24.8293 30.8804 24.2606ZM29.7697 25.7832L28.7199 29.4305C28.6517 29.6669 28.4331 29.8319 28.1877 29.8319H23.9237C23.7645 29.8319 23.6134 29.7636 23.5077 29.6442L20.1155 25.7929C19.936 25.5898 19.927 25.2859 20.0928 25.0722C20.2041 24.9284 20.3707 24.8512 20.5405 24.8512C20.642 24.8512 20.746 24.8789 20.8387 24.9366L22.7082 26.0944C22.9341 26.2341 23.2177 26.2414 23.4492 26.1114C23.6808 25.9822 23.8246 25.7385 23.8246 25.4728V20.2184C23.8246 19.8852 24.0952 19.6147 24.4283 19.6147C24.7614 19.6147 25.032 19.8852 25.032 20.2184V23.5472C25.032 23.9169 25.3074 24.2281 25.6747 24.2736L29.0433 24.6863C29.2984 24.7172 29.5178 24.8529 29.66 25.0682C29.8022 25.2819 29.8412 25.5362 29.7697 25.7832Z" fill="#EB1774"/>
</svg>
